<svg width="40.00cm" height="28.00cm" viewBox="0 0 2000 1320.95" xmlns="http://www.w3.org/2000/svg" version="1.1">
  undefined
  undefined
  undefined
  undefined
  undefined
  undefined
  undefined
  undefined
  undefined
  undefined
  undefined
  undefined
  undefined
  undefined
  undefined
  undefined
  undefined
  undefined
  undefined
  undefined
  undefined
  undefined
  undefined
  undefined
  undefined
  undefined
  undefined
  undefined
  undefined
  undefined
  undefined
  undefined
  undefined
  undefined
  undefined
  undefined
  undefined
  undefined
  undefined
  undefined
  undefined
  undefined
  undefined
  undefined
  undefined
  undefined
  undefined
  undefined
  undefined
  undefined
  undefined
  undefined
  undefined
  undefined
  undefined
  undefined
  undefined
  undefined
  undefined
  undefined
  undefined
  undefined
  undefined
  undefined
  undefined
  undefined
  undefined
  undefined
  undefined
  undefined
  undefined
  undefined
  undefined
  undefined
  undefined
  undefined
  undefined
  undefined
  undefined
  undefined
  undefined
  undefined
  undefined
  undefined
  undefined
  undefined
  undefined
  undefined
  undefined
  undefined
  undefined
  undefined
  undefined
  undefined
  undefined
  undefined
  undefined
  undefined
  undefined
  undefined
  undefined
  undefined
  undefined
  undefined
  undefined
  undefined
  undefined
  <g stroke-linecap="round" stroke-linejoin="round">
    <path d="M 264.00 360.00 L 304.00 360.00 M 299.00 365.00 L 304.00 360.00 L 299.00 355.00" stroke="#000000" stroke-width="1.4" fill="none"/>
    <path d="M 336.00 360.00 L 456.00 360.00 M 451.00 365.00 L 456.00 360.00 L 451.00 355.00" stroke="#000000" stroke-width="1.4" fill="none"/>
    <circle cx="320.00" cy="360.00" r="12.00" stroke="#000000" stroke-width="1.4" fill="#ffffff"/>
    <path d="M 320.00 360.00 S 317.00 357.00 317.00 354.00 L 323.00 354.00 S 323.00 357.00 320.00 360.00 S 317.00 364.50 317.00 366.00 L 323.00 366.00 S 323.00 363.00 320.00 360.00" stroke="#000000" stroke-width="1.4" fill="none"/>
    <path d="M 1304.00 480.00 L 1184.00 480.00 M 1189.00 475.00 L 1184.00 480.00 L 1189.00 485.00" stroke="#008000" stroke-width="1.4" fill="none"/>
    <path d="M 1376.00 480.00 L 1336.00 480.00 M 1341.00 475.00 L 1336.00 480.00 L 1341.00 485.00" stroke="#008000" stroke-width="1.4" fill="none"/>
    <path d="M 1376.00 360.00 L 1336.00 360.00 M 1341.00 355.00 L 1336.00 360.00 L 1341.00 365.00" stroke="#000000" stroke-width="1.4" fill="none"/>
    <path d="M 1304.00 360.00 L 1184.00 360.00 M 1189.00 355.00 L 1184.00 360.00 L 1189.00 365.00" stroke="#000000" stroke-width="1.4" fill="none"/>
    <path d="M 1120.00 536.00 L 1120.00 520.00 L 1143.03 496.97 M 1143.03 504.04 L 1143.03 496.97 L 1135.96 496.97" stroke="#a9a9a9" stroke-width="1.4" fill="none"/>
    <path d="M 1160.00 504.00 L 1160.00 520.00 L 1183.03 543.03 M 1175.96 543.03 L 1183.03 543.03 L 1183.03 535.96" stroke="#a9a9a9" stroke-width="1.4" fill="none"/>
    <path d="M 336.00 480.00 L 456.00 480.00 M 451.00 485.00 L 456.00 480.00 L 451.00 475.00" stroke="#008000" stroke-width="1.4" fill="none"/>
    <path d="M 520.00 536.00 L 520.00 520.00 L 496.97 496.97 M 504.04 496.97 L 496.97 496.97 L 496.97 504.04" stroke="#008000" stroke-width="1.4" fill="none"/>
    <path d="M 1160.00 504.00 L 1160.00 520.00 L 1136.97 543.03 M 1136.97 535.96 L 1136.97 543.03 L 1144.04 543.03" stroke="#008000" stroke-width="1.4" fill="none"/>
    <path d="M 1200.00 536.00 L 1200.00 520.00 L 1176.97 496.97 M 1184.04 496.97 L 1176.97 496.97 L 1176.97 504.04" stroke="#008000" stroke-width="1.4" fill="none"/>
    <circle cx="1160.00" cy="480.00" r="20.00" stroke="#0000ff" stroke-width="1.4" fill="#ffffff"/>
    <g>
      <text x="1160.00" y="454.50" style="font-size:14px;font-style:normal;font-weight:normal;text-align:center;text-anchor:middle;fill:#0000ff;fill-opacity:1;stroke:none;stroke-width:1px;stroke-linecap:butt;stroke-linejoin:miter;stroke-opacity:1;font-family:Bitstream Vera Sans">Workers</text>
    </g>
    <g>
      <circle cx="1148.00" cy="478.00" r="6.00" stroke="none" stroke-width="0.0" fill="#004000"/>
      <circle cx="1148.00" cy="478.00" r="4.00" stroke="none" stroke-width="0.0" fill="#008000"/>
    </g>
    <path d="M 1387.58 378.63 L 1387.58 341.37 L 1418.63 360.00 L 1387.58 378.63 M 1400.00 341.37 L 1400.00 378.63" stroke="#0000ff" stroke-width="1.4" fill="#ffffff"/>
    <path d="M 1392.55 371.18 L 1392.55 348.82 L 1411.18 360.00 L 1392.55 371.18 M 1400.00 348.82 L 1400.00 371.18" stroke="#0000ff" stroke-width="1.4" fill="#ffffff"/>
    <g>
      <text x="1414.00" y="379.00" style="font-size:15px;font-style:normal;font-weight:normal;text-align:center;text-anchor:middle;fill:#0000ff;fill-opacity:1;stroke:none;stroke-width:1px;stroke-linecap:butt;stroke-linejoin:miter;stroke-opacity:1;font-family:Bitstream Vera Sans">&amp;</text>
    </g>
    <g>
      <text x="1400.00" y="334.50" style="font-size:14px;font-style:normal;font-weight:normal;text-align:center;text-anchor:middle;fill:#0000ff;fill-opacity:1;stroke:none;stroke-width:1px;stroke-linecap:butt;stroke-linejoin:miter;stroke-opacity:1;font-family:Bitstream Vera Sans">Make fighter</text>
    </g>
    <path d="M 1545.10 360.00 L 1560.00 374.90 L 1574.90 360.00 L 1560.00 345.10 L 1545.10 360.00" stroke="#0000ff" stroke-width="1.4" fill="#ffffff"/>
    <path d="M 1551.06 360.00 L 1560.00 368.94 L 1568.94 360.00 L 1560.00 351.06 L 1551.06 360.00" stroke="#0000ff" stroke-width="1.4" fill="#ffffff"/>
    <g>
      <text x="1560.00" y="390.50" style="font-size:14px;font-style:normal;font-weight:normal;text-align:center;text-anchor:middle;fill:#0000ff;fill-opacity:1;stroke:none;stroke-width:1px;stroke-linecap:butt;stroke-linejoin:miter;stroke-opacity:1;font-family:Bitstream Vera Sans">end turn</text>
    </g>
    <path d="M 1187.58 578.63 L 1187.58 541.37 L 1218.63 560.00 L 1187.58 578.63 M 1200.00 541.37 L 1200.00 578.63" stroke="#0000ff" stroke-width="1.4" fill="#ffffff"/>
    <path d="M 1192.55 571.18 L 1192.55 548.82 L 1211.18 560.00 L 1192.55 571.18 M 1200.00 548.82 L 1200.00 571.18" stroke="#0000ff" stroke-width="1.4" fill="#ffffff"/>
    <g>
      <text x="1200.00" y="594.50" style="font-size:14px;font-style:normal;font-weight:normal;text-align:center;text-anchor:middle;fill:#0000ff;fill-opacity:1;stroke:none;stroke-width:1px;stroke-linecap:butt;stroke-linejoin:miter;stroke-opacity:1;font-family:Bitstream Vera Sans">Unassign iron</text>
    </g>
    <path d="M 1107.58 578.63 L 1107.58 541.37 L 1138.63 560.00 L 1107.58 578.63 M 1120.00 541.37 L 1120.00 578.63" stroke="#0000ff" stroke-width="1.4" fill="#ffffff"/>
    <path d="M 1112.55 571.18 L 1112.55 548.82 L 1131.18 560.00 L 1112.55 571.18 M 1120.00 548.82 L 1120.00 571.18" stroke="#0000ff" stroke-width="1.4" fill="#ffffff"/>
    <g>
      <text x="1120.00" y="594.50" style="font-size:14px;font-style:normal;font-weight:normal;text-align:center;text-anchor:middle;fill:#0000ff;fill-opacity:1;stroke:none;stroke-width:1px;stroke-linecap:butt;stroke-linejoin:miter;stroke-opacity:1;font-family:Bitstream Vera Sans">Assign iron</text>
    </g>
    <circle cx="1320.00" cy="360.00" r="12.00" stroke="#000000" stroke-width="1.4" fill="#ffffff"/>
    <path d="M 1320.00 360.00 S 1317.00 357.00 1317.00 354.00 L 1323.00 354.00 S 1323.00 357.00 1320.00 360.00 S 1317.00 364.50 1317.00 366.00 L 1323.00 366.00 S 1323.00 363.00 1320.00 360.00" stroke="#000000" stroke-width="1.4" fill="none"/>
    <path d="M 264.00 480.00 L 304.00 480.00 M 299.00 485.00 L 304.00 480.00 L 299.00 475.00" stroke="#008000" stroke-width="1.4" fill="none"/>
    <circle cx="320.00" cy="480.00" r="12.00" stroke="#008000" stroke-width="1.4" fill="#ffffff"/>
    <path d="M 320.00 480.00 S 317.00 477.00 317.00 474.00 L 323.00 474.00 S 323.00 477.00 320.00 480.00 S 317.00 484.50 317.00 486.00 L 323.00 486.00 S 323.00 483.00 320.00 480.00" stroke="#008000" stroke-width="1.4" fill="none"/>
    <path d="M 304.00 760.00 L 336.00 760.00 M 331.00 765.00 L 336.00 760.00 L 331.00 755.00" stroke="#000000" stroke-width="1.4" fill="none"/>
    <path d="M 1336.00 760.00 L 1304.00 760.00 M 1309.00 755.00 L 1304.00 760.00 L 1309.00 765.00" stroke="#000000" stroke-width="1.4" fill="none"/>
    <path d="M 1261.00 699.00 L 1259.59 700.41 M 1254.64 705.36 L 1253.22 706.78 M 1248.27 711.73 L 1246.86 713.14 M 1241.91 718.09 L 1240.49 719.51 M 1235.54 724.46 L 1234.13 725.87 M 1229.18 730.82 L 1227.77 732.23 M 1222.82 737.18 L 1221.40 738.60 M 1216.97 743.03 M 1216.97 735.96 L 1216.97 743.03 L 1224.04 743.03" stroke="#000000" stroke-width="1.4" fill="none"/>
    <g>
      <text x="1246.06" y="732.59" style="font-size:14px;font-style:normal;font-weight:normal;text-align:left;text-anchor:start;fill:#ffffff;fill-opacity:1;stroke:none;stroke-width:1px;stroke-linecap:butt;stroke-linejoin:miter;stroke-opacity:1;font-family:Bitstream Vera Sans">&gt;0</text>
    </g>
    <g>
      <text x="1246.06" y="732.59" style="font-size:14px;font-style:normal;font-weight:normal;text-align:left;text-anchor:start;fill:#000000;fill-opacity:1;stroke:none;stroke-width:1px;stroke-linecap:butt;stroke-linejoin:miter;stroke-opacity:1;font-family:Bitstream Vera Sans">&gt;0</text>
    </g>
    <path d="M 341.00 699.00 L 339.59 700.41 M 334.64 705.36 L 333.22 706.78 M 328.27 711.73 L 326.86 713.14 M 321.91 718.09 L 320.49 719.51 M 315.54 724.46 L 314.13 725.87 M 309.18 730.82 L 307.77 732.23 M 302.82 737.18 L 301.40 738.60 M 296.97 743.03 M 296.97 735.96 L 296.97 743.03 L 304.04 743.03" stroke="#000000" stroke-width="1.4" fill="none"/>
    <g>
      <text x="311.91" y="718.44" style="font-size:14px;font-style:normal;font-weight:normal;text-align:right;text-anchor:end;fill:#ffffff;fill-opacity:1;stroke:none;stroke-width:1px;stroke-linecap:butt;stroke-linejoin:miter;stroke-opacity:1;font-family:Bitstream Vera Sans">==0</text>
    </g>
    <g>
      <text x="311.91" y="718.44" style="font-size:14px;font-style:normal;font-weight:normal;text-align:right;text-anchor:end;fill:#000000;fill-opacity:1;stroke:none;stroke-width:1px;stroke-linecap:butt;stroke-linejoin:miter;stroke-opacity:1;font-family:Bitstream Vera Sans">==0</text>
    </g>
    <path d="M 1299.00 699.00 L 1300.41 700.41 M 1305.36 705.36 L 1306.78 706.78 M 1311.73 711.73 L 1313.14 713.14 M 1318.09 718.09 L 1319.51 719.51 M 1324.46 724.46 L 1325.87 725.87 M 1330.82 730.82 L 1332.23 732.23 M 1337.18 737.18 L 1338.60 738.60 M 1343.03 743.03 M 1335.96 743.03 L 1343.03 743.03 L 1343.03 735.96" stroke="#000000" stroke-width="1.4" fill="none"/>
    <g>
      <text x="1309.98" y="728.62" style="font-size:14px;font-style:normal;font-weight:normal;text-align:right;text-anchor:end;fill:#ffffff;fill-opacity:1;stroke:none;stroke-width:1px;stroke-linecap:butt;stroke-linejoin:miter;stroke-opacity:1;font-family:Bitstream Vera Sans">==0</text>
    </g>
    <g>
      <text x="1309.98" y="728.62" style="font-size:14px;font-style:normal;font-weight:normal;text-align:right;text-anchor:end;fill:#000000;fill-opacity:1;stroke:none;stroke-width:1px;stroke-linecap:butt;stroke-linejoin:miter;stroke-opacity:1;font-family:Bitstream Vera Sans">==0</text>
    </g>
    <path d="M 384.00 760.00 L 416.00 760.00 M 411.00 765.00 L 416.00 760.00 L 411.00 755.00" stroke="#000000" stroke-width="1.4" fill="none"/>
    <g>
      <text x="400.00" y="774.50" style="font-size:14px;font-style:normal;font-weight:normal;text-align:center;text-anchor:middle;fill:#ffffff;fill-opacity:1;stroke:none;stroke-width:1px;stroke-linecap:butt;stroke-linejoin:miter;stroke-opacity:1;font-family:Bitstream Vera Sans">all</text>
    </g>
    <g>
      <text x="400.00" y="774.50" style="font-size:14px;font-style:normal;font-weight:normal;text-align:center;text-anchor:middle;fill:#000000;fill-opacity:1;stroke:none;stroke-width:1px;stroke-linecap:butt;stroke-linejoin:miter;stroke-opacity:1;font-family:Bitstream Vera Sans">all</text>
    </g>
    <path d="M 1256.00 760.00 L 1224.00 760.00 M 1229.00 755.00 L 1224.00 760.00 L 1229.00 765.00" stroke="#000000" stroke-width="1.4" fill="none"/>
    <g>
      <text x="1240.00" y="754.50" style="font-size:14px;font-style:normal;font-weight:normal;text-align:center;text-anchor:middle;fill:#ffffff;fill-opacity:1;stroke:none;stroke-width:1px;stroke-linecap:butt;stroke-linejoin:miter;stroke-opacity:1;font-family:Bitstream Vera Sans">all</text>
    </g>
    <g>
      <text x="1240.00" y="754.50" style="font-size:14px;font-style:normal;font-weight:normal;text-align:center;text-anchor:middle;fill:#000000;fill-opacity:1;stroke:none;stroke-width:1px;stroke-linecap:butt;stroke-linejoin:miter;stroke-opacity:1;font-family:Bitstream Vera Sans">all</text>
    </g>
    <rect x="351.00" y="831.00" width="18.00" height="18.00" stroke="#0000ff" stroke-width="1.4" fill="#ffffff"/>
    <rect x="355.00" y="835.00" width="10.00" height="10.00" stroke="#0000ff" stroke-width="1.4" fill="#0000ff"/>
    <g>
      <text x="360.00" y="863.50" style="font-size:14px;font-style:normal;font-weight:normal;text-align:center;text-anchor:middle;fill:#0000ff;fill-opacity:1;stroke:none;stroke-width:1px;stroke-linecap:butt;stroke-linejoin:miter;stroke-opacity:1;font-family:Bitstream Vera Sans">Blue wins</text>
    </g>
    <circle cx="1320.00" cy="480.00" r="12.00" stroke="#008000" stroke-width="1.4" fill="#ffffff"/>
    <path d="M 1320.00 480.00 S 1317.00 477.00 1317.00 474.00 L 1323.00 474.00 S 1323.00 477.00 1320.00 480.00 S 1317.00 484.50 1317.00 486.00 L 1323.00 486.00 S 1323.00 483.00 1320.00 480.00" stroke="#008000" stroke-width="1.4" fill="none"/>
    <path d="M 981.37 467.58 L 1018.63 467.58 L 1000.00 498.63 L 981.37 467.58" stroke="#0000ff" stroke-width="1.4" fill="#ffffff"/>
    <g>
      <text x="1024.00" y="488.00" style="font-size:27px;font-style:normal;font-weight:normal;text-align:center;text-anchor:middle;fill:#0000ff;fill-opacity:1;stroke:none;stroke-width:1px;stroke-linecap:butt;stroke-linejoin:miter;stroke-opacity:1;font-family:Bitstream Vera Sans">*</text>
    </g>
    <circle cx="1280.00" cy="760.00" r="20.00" stroke="#000000" stroke-width="1.4" fill="#ffffff"/>
    <path d="M 480.00 336.00 L 480.00 264.00 M 485.00 269.00 L 480.00 264.00 L 475.00 269.00" stroke="#ce0000" stroke-width="1.4" fill="none"/>
    <path d="M 499.20 374.40 L 500.80 375.60 M 506.40 379.80 L 508.00 381.00 M 513.60 385.20 L 515.20 386.40 M 520.80 390.60 L 522.40 391.80 M 528.00 396.00 L 529.60 397.20 M 535.20 401.40 L 536.80 402.60 M 542.40 406.80 L 544.00 408.00 M 549.60 412.20 L 551.20 413.40 M 556.80 417.60 L 558.40 418.80 M 564.00 423.00 L 565.60 424.20 M 571.20 428.40 L 572.80 429.60 M 578.40 433.80 L 580.00 435.00 M 585.60 439.20 L 587.20 440.40 M 592.80 444.60 L 594.40 445.80 M 600.00 450.00 L 601.60 451.20 M 607.20 455.40 L 608.80 456.60 M 614.40 460.80 L 616.00 462.00 M 620.80 465.60 M 613.80 466.60 L 620.80 465.60 L 619.80 458.60" stroke="#000000" stroke-width="1.4" fill="none"/>
    <g>
      <text x="554.00" y="432.50" style="font-size:14px;font-style:normal;font-weight:normal;text-align:right;text-anchor:end;fill:#ffffff;fill-opacity:1;stroke:none;stroke-width:1px;stroke-linecap:butt;stroke-linejoin:miter;stroke-opacity:1;font-family:Bitstream Vera Sans">==0</text>
    </g>
    <g>
      <text x="554.00" y="432.50" style="font-size:14px;font-style:normal;font-weight:normal;text-align:right;text-anchor:end;fill:#000000;fill-opacity:1;stroke:none;stroke-width:1px;stroke-linecap:butt;stroke-linejoin:miter;stroke-opacity:1;font-family:Bitstream Vera Sans">==0</text>
    </g>
    <path d="M 480.00 264.00 L 480.00 336.00 M 475.00 331.00 L 480.00 336.00 L 485.00 331.00" stroke="#ce0000" stroke-width="1.4" fill="none"/>
    <path d="M 1160.00 336.00 L 1160.00 264.00 M 1165.00 269.00 L 1160.00 264.00 L 1155.00 269.00" stroke="#0000ff" stroke-width="1.4" fill="none"/>
    <path d="M 1160.00 264.00 L 1160.00 336.00 M 1155.00 331.00 L 1160.00 336.00 L 1165.00 331.00" stroke="#0000ff" stroke-width="1.4" fill="none"/>
    <circle cx="480.00" cy="360.00" r="20.00" stroke="#ce0000" stroke-width="1.4" fill="#ffffff"/>
    <circle cx="480.00" cy="360.00" r="15.00" stroke="#ce0000" stroke-width="1.4" fill="#ffffff"/>
    <g>
      <text x="480.00" y="394.50" style="font-size:14px;font-style:normal;font-weight:normal;text-align:center;text-anchor:middle;fill:#ce0000;fill-opacity:1;stroke:none;stroke-width:1px;stroke-linecap:butt;stroke-linejoin:miter;stroke-opacity:1;font-family:Bitstream Vera Sans">Defence</text>
    </g>
    <circle cx="1160.00" cy="360.00" r="20.00" stroke="#0000ff" stroke-width="1.4" fill="#ffffff"/>
    <circle cx="1160.00" cy="360.00" r="15.00" stroke="#0000ff" stroke-width="1.4" fill="#ffffff"/>
    <g>
      <text x="1160.00" y="394.50" style="font-size:14px;font-style:normal;font-weight:normal;text-align:center;text-anchor:middle;fill:#0000ff;fill-opacity:1;stroke:none;stroke-width:1px;stroke-linecap:butt;stroke-linejoin:miter;stroke-opacity:1;font-family:Bitstream Vera Sans">Defence</text>
    </g>
    <path d="M 1136.00 480.00 L 1024.00 480.00 M 1029.00 475.00 L 1024.00 480.00 L 1029.00 485.00" stroke="#0000ff" stroke-width="1.4" fill="none"/>
    <g>
      <text x="1080.00" y="474.50" style="font-size:14px;font-style:normal;font-weight:normal;text-align:center;text-anchor:middle;fill:#ffffff;fill-opacity:1;stroke:none;stroke-width:1px;stroke-linecap:butt;stroke-linejoin:miter;stroke-opacity:1;font-family:Bitstream Vera Sans">0*25%</text>
    </g>
    <g>
      <text x="1080.00" y="474.50" style="font-size:14px;font-style:normal;font-weight:normal;text-align:center;text-anchor:middle;fill:#0000ff;fill-opacity:1;stroke:none;stroke-width:1px;stroke-linecap:butt;stroke-linejoin:miter;stroke-opacity:1;font-family:Bitstream Vera Sans">0*25%</text>
    </g>
    <path d="M 1136.00 360.00 L 1024.00 360.00 M 1029.00 355.00 L 1024.00 360.00 L 1029.00 365.00" stroke="#0000ff" stroke-width="1.4" fill="none"/>
    <g>
      <text x="1080.00" y="354.50" style="font-size:14px;font-style:normal;font-weight:normal;text-align:center;text-anchor:middle;fill:#ffffff;fill-opacity:1;stroke:none;stroke-width:1px;stroke-linecap:butt;stroke-linejoin:miter;stroke-opacity:1;font-family:Bitstream Vera Sans">0*25%</text>
    </g>
    <g>
      <text x="1080.00" y="354.50" style="font-size:14px;font-style:normal;font-weight:normal;text-align:center;text-anchor:middle;fill:#0000ff;fill-opacity:1;stroke:none;stroke-width:1px;stroke-linecap:butt;stroke-linejoin:miter;stroke-opacity:1;font-family:Bitstream Vera Sans">0*25%</text>
    </g>
    <path d="M 379.00 699.00 L 380.41 700.41 M 385.36 705.36 L 386.78 706.78 M 391.73 711.73 L 393.14 713.14 M 398.09 718.09 L 399.51 719.51 M 404.46 724.46 L 405.87 725.87 M 410.82 730.82 L 412.23 732.23 M 417.18 737.18 L 418.60 738.60 M 423.03 743.03 M 415.96 743.03 L 423.03 743.03 L 423.03 735.96" stroke="#000000" stroke-width="1.4" fill="none"/>
    <g>
      <text x="408.09" y="718.44" style="font-size:14px;font-style:normal;font-weight:normal;text-align:left;text-anchor:start;fill:#ffffff;fill-opacity:1;stroke:none;stroke-width:1px;stroke-linecap:butt;stroke-linejoin:miter;stroke-opacity:1;font-family:Bitstream Vera Sans">&gt;0</text>
    </g>
    <g>
      <text x="408.09" y="718.44" style="font-size:14px;font-style:normal;font-weight:normal;text-align:left;text-anchor:start;fill:#000000;fill-opacity:1;stroke:none;stroke-width:1px;stroke-linecap:butt;stroke-linejoin:miter;stroke-opacity:1;font-family:Bitstream Vera Sans">&gt;0</text>
    </g>
    <path d="M 981.37 227.58 L 1018.63 227.58 L 1000.00 258.63 L 981.37 227.58" stroke="#0000ff" stroke-width="1.4" fill="#ffffff"/>
    <g>
      <text x="1024.00" y="248.00" style="font-size:27px;font-style:normal;font-weight:normal;text-align:center;text-anchor:middle;fill:#0000ff;fill-opacity:1;stroke:none;stroke-width:1px;stroke-linecap:butt;stroke-linejoin:miter;stroke-opacity:1;font-family:Bitstream Vera Sans">*</text>
    </g>
    <path d="M 1136.00 240.00 L 1024.00 240.00 M 1029.00 235.00 L 1024.00 240.00 L 1029.00 245.00" stroke="#0000ff" stroke-width="1.4" fill="none"/>
    <g>
      <text x="1080.00" y="234.50" style="font-size:14px;font-style:normal;font-weight:normal;text-align:center;text-anchor:middle;fill:#ffffff;fill-opacity:1;stroke:none;stroke-width:1px;stroke-linecap:butt;stroke-linejoin:miter;stroke-opacity:1;font-family:Bitstream Vera Sans">0*25%</text>
    </g>
    <g>
      <text x="1080.00" y="234.50" style="font-size:14px;font-style:normal;font-weight:normal;text-align:center;text-anchor:middle;fill:#0000ff;fill-opacity:1;stroke:none;stroke-width:1px;stroke-linecap:butt;stroke-linejoin:miter;stroke-opacity:1;font-family:Bitstream Vera Sans">0*25%</text>
    </g>
    <path d="M 1280.00 784.00 L 1280.00 786.00 M 1280.00 793.00 L 1280.00 795.00 M 1280.00 802.00 L 1280.00 804.00 M 1280.00 811.00 L 1280.00 813.00 M 1280.00 820.00 L 1280.00 822.00 M 1280.00 827.00 M 1275.00 822.00 L 1280.00 827.00 L 1285.00 822.00" stroke="#000000" stroke-width="1.4" fill="none"/>
    <g>
      <text x="1270.00" y="802.69" style="font-size:14px;font-style:normal;font-weight:normal;text-align:right;text-anchor:end;fill:#ffffff;fill-opacity:1;stroke:none;stroke-width:1px;stroke-linecap:butt;stroke-linejoin:miter;stroke-opacity:1;font-family:Bitstream Vera Sans">&gt;2</text>
    </g>
    <g>
      <text x="1270.00" y="802.69" style="font-size:14px;font-style:normal;font-weight:normal;text-align:right;text-anchor:end;fill:#000000;fill-opacity:1;stroke:none;stroke-width:1px;stroke-linecap:butt;stroke-linejoin:miter;stroke-opacity:1;font-family:Bitstream Vera Sans">&gt;2</text>
    </g>
    <path d="M 227.58 378.63 L 227.58 341.37 L 258.63 360.00 L 227.58 378.63 M 240.00 341.37 L 240.00 378.63" stroke="#ce0000" stroke-width="1.4" fill="#ffffff"/>
    <path d="M 232.55 371.18 L 232.55 348.82 L 251.18 360.00 L 232.55 371.18 M 240.00 348.82 L 240.00 371.18" stroke="#ce0000" stroke-width="1.4" fill="#ffffff"/>
    <g>
      <text x="254.00" y="379.00" style="font-size:15px;font-style:normal;font-weight:normal;text-align:center;text-anchor:middle;fill:#ce0000;fill-opacity:1;stroke:none;stroke-width:1px;stroke-linecap:butt;stroke-linejoin:miter;stroke-opacity:1;font-family:Bitstream Vera Sans">&amp;</text>
    </g>
    <g>
      <text x="240.00" y="334.50" style="font-size:14px;font-style:normal;font-weight:normal;text-align:center;text-anchor:middle;fill:#ce0000;fill-opacity:1;stroke:none;stroke-width:1px;stroke-linecap:butt;stroke-linejoin:miter;stroke-opacity:1;font-family:Bitstream Vera Sans">Make fighter</text>
    </g>
    <path d="M 1387.58 498.63 L 1387.58 461.37 L 1418.63 480.00 L 1387.58 498.63 M 1400.00 461.37 L 1400.00 498.63" stroke="#0000ff" stroke-width="1.4" fill="#ffffff"/>
    <path d="M 1392.55 491.18 L 1392.55 468.82 L 1411.18 480.00 L 1392.55 491.18 M 1400.00 468.82 L 1400.00 491.18" stroke="#0000ff" stroke-width="1.4" fill="#ffffff"/>
    <g>
      <text x="1414.00" y="499.00" style="font-size:15px;font-style:normal;font-weight:normal;text-align:center;text-anchor:middle;fill:#0000ff;fill-opacity:1;stroke:none;stroke-width:1px;stroke-linecap:butt;stroke-linejoin:miter;stroke-opacity:1;font-family:Bitstream Vera Sans">&amp;</text>
    </g>
    <g>
      <text x="1400.00" y="454.50" style="font-size:14px;font-style:normal;font-weight:normal;text-align:center;text-anchor:middle;fill:#0000ff;fill-opacity:1;stroke:none;stroke-width:1px;stroke-linecap:butt;stroke-linejoin:miter;stroke-opacity:1;font-family:Bitstream Vera Sans">Make worker</text>
    </g>
    <path d="M 1128.91 582.28 L 1129.66 584.14 M 1132.26 590.64 L 1133.00 592.50 M 1135.60 599.00 L 1136.34 600.85 M 1138.94 607.35 L 1139.68 609.21 M 1142.28 615.71 L 1143.03 617.57 M 1145.63 624.06 L 1146.37 625.92 M 1148.97 632.42 L 1149.71 634.28 M 1152.31 640.78 L 1153.05 642.63 M 1155.65 649.13 L 1156.40 650.99 M 1159.00 657.49 L 1159.74 659.35 M 1162.34 665.85 L 1163.08 667.70 M 1165.68 674.20 L 1166.42 676.06 M 1169.02 682.56 L 1169.77 684.42 M 1172.37 690.92 L 1173.11 692.77 M 1175.71 699.27 L 1176.45 701.13 M 1179.05 707.63 L 1179.79 709.48 M 1182.39 715.98 L 1183.14 717.84 M 1185.74 724.34 L 1186.48 726.20 M 1189.08 732.70 L 1189.82 734.55 M 1191.09 737.72 M 1184.59 734.93 L 1191.09 737.72 L 1193.87 731.22" stroke="#0000ff" stroke-width="1.4" fill="none"/>
    <g>
      <text x="1150.72" y="668.21" style="font-size:14px;font-style:normal;font-weight:normal;text-align:right;text-anchor:end;fill:#ffffff;fill-opacity:1;stroke:none;stroke-width:1px;stroke-linecap:butt;stroke-linejoin:miter;stroke-opacity:1;font-family:Bitstream Vera Sans">*</text>
    </g>
    <g>
      <text x="1150.72" y="668.21" style="font-size:14px;font-style:normal;font-weight:normal;text-align:right;text-anchor:end;fill:#0000ff;fill-opacity:1;stroke:none;stroke-width:1px;stroke-linecap:butt;stroke-linejoin:miter;stroke-opacity:1;font-family:Bitstream Vera Sans">*</text>
    </g>
    <path d="M 227.58 498.63 L 227.58 461.37 L 258.63 480.00 L 227.58 498.63 M 240.00 461.37 L 240.00 498.63" stroke="#ce0000" stroke-width="1.4" fill="#ffffff"/>
    <path d="M 232.55 491.18 L 232.55 468.82 L 251.18 480.00 L 232.55 491.18 M 240.00 468.82 L 240.00 491.18" stroke="#ce0000" stroke-width="1.4" fill="#ffffff"/>
    <g>
      <text x="254.00" y="499.00" style="font-size:15px;font-style:normal;font-weight:normal;text-align:center;text-anchor:middle;fill:#ce0000;fill-opacity:1;stroke:none;stroke-width:1px;stroke-linecap:butt;stroke-linejoin:miter;stroke-opacity:1;font-family:Bitstream Vera Sans">&amp;</text>
    </g>
    <g>
      <text x="240.00" y="454.50" style="font-size:14px;font-style:normal;font-weight:normal;text-align:center;text-anchor:middle;fill:#ce0000;fill-opacity:1;stroke:none;stroke-width:1px;stroke-linecap:butt;stroke-linejoin:miter;stroke-opacity:1;font-family:Bitstream Vera Sans">Make worker</text>
    </g>
    <circle cx="160.00" cy="680.00" r="20.00" stroke="#ce0000" stroke-width="1.4" fill="#ffffff"/>
    <g>
      <text x="160.00" y="714.50" style="font-size:14px;font-style:normal;font-weight:normal;text-align:center;text-anchor:middle;fill:#ce0000;fill-opacity:1;stroke:none;stroke-width:1px;stroke-linecap:butt;stroke-linejoin:miter;stroke-opacity:1;font-family:Bitstream Vera Sans">Iron</text>
    </g>
    <g>
      <text x="160.00" y="686.00" style="font-size:18px;font-style:normal;font-weight:normal;text-align:center;text-anchor:middle;fill:#000000;fill-opacity:1;stroke:none;stroke-width:1px;stroke-linecap:butt;stroke-linejoin:miter;stroke-opacity:1;font-family:Bitstream Vera Sans">20</text>
    </g>
    <circle cx="360.00" cy="760.00" r="20.00" stroke="#000000" stroke-width="1.4" fill="#ffffff"/>
    <path d="M 261.37 772.42 L 298.63 772.42 L 280.00 741.37 L 261.37 772.42" stroke="#000000" stroke-width="1.4" fill="#ffffff"/>
    <g>
      <text x="294.00" y="760.00" style="font-size:27px;font-style:normal;font-weight:normal;text-align:center;text-anchor:middle;fill:#000000;fill-opacity:1;stroke:none;stroke-width:1px;stroke-linecap:butt;stroke-linejoin:miter;stroke-opacity:1;font-family:Bitstream Vera Sans">*</text>
    </g>
    <path d="M 457.23 487.59 L 455.33 488.22 M 448.69 490.44 L 446.80 491.07 M 440.16 493.28 L 438.26 493.91 M 431.62 496.13 L 429.72 496.76 M 423.08 498.97 L 421.18 499.61 M 414.54 501.82 L 412.64 502.45 M 406.00 504.67 L 404.11 505.30 M 397.46 507.51 L 395.57 508.14 M 388.93 510.36 L 387.03 510.99 M 380.39 513.20 L 378.49 513.84 M 371.85 516.05 L 369.95 516.68 M 363.31 518.90 L 361.41 519.53 M 360.00 520.00 M 360.00 525.51 L 360.00 527.51 M 360.00 534.51 L 360.00 536.51 M 360.00 543.51 L 360.00 545.51 M 360.00 552.51 L 360.00 554.51 M 360.00 561.51 L 360.00 563.51 M 360.00 570.51 L 360.00 572.51 M 360.00 579.51 L 360.00 581.51 M 360.00 588.51 L 360.00 590.51 M 360.00 597.51 L 360.00 599.51 M 360.00 606.51 L 360.00 608.51 M 360.00 615.51 L 360.00 617.51 M 360.00 624.51 L 360.00 626.51 M 360.00 633.51 L 360.00 635.51 M 360.00 642.51 L 360.00 644.51 M 360.00 651.51 L 360.00 653.51 M 360.00 660.51 L 360.00 661.00 M 355.00 656.00 L 360.00 661.00 L 365.00 656.00" stroke="#ce0000" stroke-width="1.4" fill="none"/>
    <g>
      <text x="403.25" y="499.54" style="font-size:14px;font-style:normal;font-weight:normal;text-align:center;text-anchor:middle;fill:#ffffff;fill-opacity:1;stroke:none;stroke-width:1px;stroke-linecap:butt;stroke-linejoin:miter;stroke-opacity:1;font-family:Bitstream Vera Sans">a</text>
    </g>
    <g>
      <text x="403.25" y="499.54" style="font-size:14px;font-style:normal;font-weight:normal;text-align:center;text-anchor:middle;fill:#ce0000;fill-opacity:1;stroke:none;stroke-width:1px;stroke-linecap:butt;stroke-linejoin:miter;stroke-opacity:1;font-family:Bitstream Vera Sans">a</text>
    </g>
    <path d="M 457.23 367.59 L 455.33 368.22 M 448.69 370.44 L 446.80 371.07 M 440.16 373.28 L 438.26 373.91 M 431.62 376.13 L 429.72 376.76 M 423.08 378.97 L 421.18 379.61 M 414.54 381.82 L 412.64 382.45 M 406.00 384.67 L 404.11 385.30 M 397.46 387.51 L 395.57 388.14 M 388.93 390.36 L 387.03 390.99 M 380.39 393.20 L 378.49 393.84 M 371.85 396.05 L 369.95 396.68 M 363.31 398.90 L 361.41 399.53 M 360.00 400.00 M 360.00 405.51 L 360.00 407.51 M 360.00 414.51 L 360.00 416.51 M 360.00 423.51 L 360.00 425.51 M 360.00 432.51 L 360.00 434.51 M 360.00 441.51 L 360.00 443.51 M 360.00 450.51 L 360.00 452.51 M 360.00 459.51 L 360.00 461.51 M 360.00 468.51 L 360.00 470.51 M 360.00 477.51 L 360.00 479.51 M 360.00 486.51 L 360.00 488.51 M 360.00 495.51 L 360.00 497.51 M 360.00 504.51 L 360.00 506.51 M 360.00 513.51 L 360.00 515.51 M 360.00 522.51 L 360.00 524.51 M 360.00 531.51 L 360.00 533.51 M 360.00 540.51 L 360.00 542.51 M 360.00 549.51 L 360.00 551.51 M 360.00 558.51 L 360.00 560.51 M 360.00 567.51 L 360.00 569.51 M 360.00 576.51 L 360.00 578.51 M 360.00 585.51 L 360.00 587.51 M 360.00 594.51 L 360.00 596.51 M 360.00 603.51 L 360.00 605.51 M 360.00 612.51 L 360.00 614.51 M 360.00 621.51 L 360.00 623.51 M 360.00 630.51 L 360.00 632.51 M 360.00 639.51 L 360.00 641.51 M 360.00 648.51 L 360.00 650.51 M 360.00 657.51 L 360.00 659.51 M 360.00 661.00 M 355.00 656.00 L 360.00 661.00 L 365.00 656.00" stroke="#ce0000" stroke-width="1.4" fill="none"/>
    <g>
      <text x="402.34" y="379.84" style="font-size:14px;font-style:normal;font-weight:normal;text-align:center;text-anchor:middle;fill:#ffffff;fill-opacity:1;stroke:none;stroke-width:1px;stroke-linecap:butt;stroke-linejoin:miter;stroke-opacity:1;font-family:Bitstream Vera Sans">b</text>
    </g>
    <g>
      <text x="402.34" y="379.84" style="font-size:14px;font-style:normal;font-weight:normal;text-align:center;text-anchor:middle;fill:#ce0000;fill-opacity:1;stroke:none;stroke-width:1px;stroke-linecap:butt;stroke-linejoin:miter;stroke-opacity:1;font-family:Bitstream Vera Sans">b</text>
    </g>
    <path d="M 457.94 489.45 L 456.10 490.24 M 449.67 493.00 L 447.83 493.79 M 441.40 496.54 L 439.56 497.33 M 433.12 500.09 L 431.29 500.88 M 424.85 503.64 L 423.01 504.42 M 416.58 507.18 L 414.74 507.97 M 408.31 510.73 L 406.47 511.51 M 400.03 514.27 L 398.20 515.06 M 391.76 517.82 L 389.92 518.60 M 383.49 521.36 L 381.65 522.15 M 375.22 524.91 L 373.38 525.69 M 366.95 528.45 L 365.11 529.24 M 358.67 532.00 L 356.83 532.79 M 350.40 535.54 L 348.56 536.33 M 342.13 539.09 L 340.29 539.88 M 333.86 542.63 L 332.02 543.42 M 325.58 546.18 L 323.75 546.97 M 317.31 549.72 L 315.47 550.51 M 309.04 553.27 L 307.20 554.06 M 300.77 556.81 L 298.93 557.60 M 292.49 560.36 L 290.66 561.15 M 284.22 563.90 L 282.38 564.69 M 275.95 567.45 L 274.11 568.24 M 267.68 571.00 L 265.84 571.78 M 259.41 574.54 L 257.57 575.33 M 251.13 578.09 L 249.29 578.87 M 242.86 581.63 L 241.02 582.42 M 234.59 585.18 L 232.75 585.96 M 226.32 588.72 L 224.48 589.51 M 218.04 592.27 L 216.21 593.05 M 209.77 595.81 L 207.93 596.60 M 201.50 599.36 L 200.00 600.00 L 200.00 600.37 M 200.00 607.37 L 200.00 609.37 M 200.00 616.37 L 200.00 618.37 M 200.00 625.37 L 200.00 627.37 M 200.00 634.37 L 200.00 636.37 M 200.00 643.37 L 200.00 645.37 M 200.00 652.37 L 200.00 654.37 M 200.00 659.35 M 195.00 654.35 L 200.00 659.35 L 205.00 654.35" stroke="#a9a9a9" stroke-width="1.4" fill="none"/>
    <g>
      <text x="210.00" y="643.45" style="font-size:14px;font-style:normal;font-weight:normal;text-align:left;text-anchor:start;fill:#ffffff;fill-opacity:1;stroke:none;stroke-width:1px;stroke-linecap:butt;stroke-linejoin:miter;stroke-opacity:1;font-family:Bitstream Vera Sans">+1</text>
    </g>
    <g>
      <text x="210.00" y="643.45" style="font-size:14px;font-style:normal;font-weight:normal;text-align:left;text-anchor:start;fill:#a9a9a9;fill-opacity:1;stroke:none;stroke-width:1px;stroke-linecap:butt;stroke-linejoin:miter;stroke-opacity:1;font-family:Bitstream Vera Sans">+1</text>
    </g>
    <circle cx="480.00" cy="240.00" r="20.00" stroke="#ce0000" stroke-width="1.4" fill="#ffffff"/>
    <circle cx="480.00" cy="240.00" r="15.00" stroke="#ce0000" stroke-width="1.4" fill="#ffffff"/>
    <g>
      <text x="480.00" y="274.50" style="font-size:14px;font-style:normal;font-weight:normal;text-align:center;text-anchor:middle;fill:#ce0000;fill-opacity:1;stroke:none;stroke-width:1px;stroke-linecap:butt;stroke-linejoin:miter;stroke-opacity:1;font-family:Bitstream Vera Sans">Attack</text>
    </g>
    <path d="M 457.23 247.59 L 455.33 248.22 M 448.69 250.44 L 446.80 251.07 M 440.16 253.28 L 438.26 253.91 M 431.62 256.13 L 429.72 256.76 M 423.08 258.97 L 421.18 259.61 M 414.54 261.82 L 412.64 262.45 M 406.00 264.67 L 404.11 265.30 M 397.46 267.51 L 395.57 268.14 M 388.93 270.36 L 387.03 270.99 M 380.39 273.20 L 378.49 273.84 M 371.85 276.05 L 369.95 276.68 M 363.31 278.90 L 361.41 279.53 M 360.00 280.00 M 360.00 285.51 L 360.00 287.51 M 360.00 294.51 L 360.00 296.51 M 360.00 303.51 L 360.00 305.51 M 360.00 312.51 L 360.00 314.51 M 360.00 321.51 L 360.00 323.51 M 360.00 330.51 L 360.00 332.51 M 360.00 339.51 L 360.00 341.51 M 360.00 348.51 L 360.00 350.51 M 360.00 357.51 L 360.00 359.51 M 360.00 366.51 L 360.00 368.51 M 360.00 375.51 L 360.00 377.51 M 360.00 384.51 L 360.00 386.51 M 360.00 393.51 L 360.00 395.51 M 360.00 402.51 L 360.00 404.51 M 360.00 411.51 L 360.00 413.51 M 360.00 420.51 L 360.00 422.51 M 360.00 429.51 L 360.00 431.51 M 360.00 438.51 L 360.00 440.51 M 360.00 447.51 L 360.00 449.51 M 360.00 456.51 L 360.00 458.51 M 360.00 465.51 L 360.00 467.51 M 360.00 474.51 L 360.00 476.51 M 360.00 483.51 L 360.00 485.51 M 360.00 492.51 L 360.00 494.51 M 360.00 501.51 L 360.00 503.51 M 360.00 510.51 L 360.00 512.51 M 360.00 519.51 L 360.00 521.51 M 360.00 528.51 L 360.00 530.51 M 360.00 537.51 L 360.00 539.51 M 360.00 546.51 L 360.00 548.51 M 360.00 555.51 L 360.00 557.51 M 360.00 564.51 L 360.00 566.51 M 360.00 573.51 L 360.00 575.51 M 360.00 582.51 L 360.00 584.51 M 360.00 591.51 L 360.00 593.51 M 360.00 600.51 L 360.00 602.51 M 360.00 609.51 L 360.00 611.51 M 360.00 618.51 L 360.00 620.51 M 360.00 627.51 L 360.00 629.51 M 360.00 636.51 L 360.00 638.51 M 360.00 645.51 L 360.00 647.51 M 360.00 654.51 L 360.00 656.51 M 360.00 661.00 M 355.00 656.00 L 360.00 661.00 L 365.00 656.00" stroke="#ce0000" stroke-width="1.4" fill="none"/>
    <g>
      <text x="399.03" y="260.95" style="font-size:14px;font-style:normal;font-weight:normal;text-align:center;text-anchor:middle;fill:#ffffff;fill-opacity:1;stroke:none;stroke-width:1px;stroke-linecap:butt;stroke-linejoin:miter;stroke-opacity:1;font-family:Bitstream Vera Sans">c</text>
    </g>
    <g>
      <text x="399.03" y="260.95" style="font-size:14px;font-style:normal;font-weight:normal;text-align:center;text-anchor:middle;fill:#ce0000;fill-opacity:1;stroke:none;stroke-width:1px;stroke-linecap:butt;stroke-linejoin:miter;stroke-opacity:1;font-family:Bitstream Vera Sans">c</text>
    </g>
    <rect x="345.60" y="665.60" width="28.80" height="28.80" stroke="#000000" stroke-width="1.4" fill="#000000"/>
    <g>
      <text x="360.00" y="684.00" style="font-size:12px;font-style:normal;font-weight:normal;text-align:center;text-anchor:middle;fill:#ffffff;fill-opacity:1;stroke:none;stroke-width:1px;stroke-linecap:butt;stroke-linejoin:miter;stroke-opacity:1;font-family:Bitstream Vera Sans">x</text>
    </g>
    <g>
      <text x="360.00" y="709.50" style="font-size:14px;font-style:normal;font-weight:normal;text-align:center;text-anchor:middle;fill:#000000;fill-opacity:1;stroke:none;stroke-width:1px;stroke-linecap:butt;stroke-linejoin:miter;stroke-opacity:1;font-family:Bitstream Vera Sans">a+b+c</text>
    </g>
    <path d="M 1480.00 656.00 L 1480.00 480.00 L 1424.00 480.00 M 1429.00 475.00 L 1424.00 480.00 L 1429.00 485.00" stroke="#000000" stroke-width="1.4" fill="none"/>
    <g>
      <text x="1447.20" y="474.50" style="font-size:14px;font-style:normal;font-weight:normal;text-align:center;text-anchor:middle;fill:#ffffff;fill-opacity:1;stroke:none;stroke-width:1px;stroke-linecap:butt;stroke-linejoin:miter;stroke-opacity:1;font-family:Bitstream Vera Sans">5</text>
    </g>
    <g>
      <text x="1447.20" y="474.50" style="font-size:14px;font-style:normal;font-weight:normal;text-align:center;text-anchor:middle;fill:#000000;fill-opacity:1;stroke:none;stroke-width:1px;stroke-linecap:butt;stroke-linejoin:miter;stroke-opacity:1;font-family:Bitstream Vera Sans">5</text>
    </g>
    <path d="M 1480.00 656.00 L 1480.00 360.00 L 1424.00 360.00 M 1429.00 355.00 L 1424.00 360.00 L 1429.00 365.00" stroke="#000000" stroke-width="1.4" fill="none"/>
    <g>
      <text x="1452.16" y="354.50" style="font-size:14px;font-style:normal;font-weight:normal;text-align:center;text-anchor:middle;fill:#ffffff;fill-opacity:1;stroke:none;stroke-width:1px;stroke-linecap:butt;stroke-linejoin:miter;stroke-opacity:1;font-family:Bitstream Vera Sans">10</text>
    </g>
    <g>
      <text x="1452.16" y="354.50" style="font-size:14px;font-style:normal;font-weight:normal;text-align:center;text-anchor:middle;fill:#000000;fill-opacity:1;stroke:none;stroke-width:1px;stroke-linecap:butt;stroke-linejoin:miter;stroke-opacity:1;font-family:Bitstream Vera Sans">10</text>
    </g>
    <path d="M 160.00 656.00 L 160.00 360.00 L 216.00 360.00 M 211.00 365.00 L 216.00 360.00 L 211.00 355.00" stroke="#000000" stroke-width="1.4" fill="none"/>
    <g>
      <text x="187.84" y="374.50" style="font-size:14px;font-style:normal;font-weight:normal;text-align:center;text-anchor:middle;fill:#ffffff;fill-opacity:1;stroke:none;stroke-width:1px;stroke-linecap:butt;stroke-linejoin:miter;stroke-opacity:1;font-family:Bitstream Vera Sans">10</text>
    </g>
    <g>
      <text x="187.84" y="374.50" style="font-size:14px;font-style:normal;font-weight:normal;text-align:center;text-anchor:middle;fill:#000000;fill-opacity:1;stroke:none;stroke-width:1px;stroke-linecap:butt;stroke-linejoin:miter;stroke-opacity:1;font-family:Bitstream Vera Sans">10</text>
    </g>
    <path d="M 160.00 656.00 L 160.00 480.00 L 216.00 480.00 M 211.00 485.00 L 216.00 480.00 L 211.00 475.00" stroke="#000000" stroke-width="1.4" fill="none"/>
    <g>
      <text x="192.80" y="494.50" style="font-size:14px;font-style:normal;font-weight:normal;text-align:center;text-anchor:middle;fill:#ffffff;fill-opacity:1;stroke:none;stroke-width:1px;stroke-linecap:butt;stroke-linejoin:miter;stroke-opacity:1;font-family:Bitstream Vera Sans">5</text>
    </g>
    <g>
      <text x="192.80" y="494.50" style="font-size:14px;font-style:normal;font-weight:normal;text-align:center;text-anchor:middle;fill:#000000;fill-opacity:1;stroke:none;stroke-width:1px;stroke-linecap:butt;stroke-linejoin:miter;stroke-opacity:1;font-family:Bitstream Vera Sans">5</text>
    </g>
    <circle cx="1480.00" cy="680.00" r="20.00" stroke="#0000ff" stroke-width="1.4" fill="#ffffff"/>
    <g>
      <text x="1480.00" y="714.50" style="font-size:14px;font-style:normal;font-weight:normal;text-align:center;text-anchor:middle;fill:#0000ff;fill-opacity:1;stroke:none;stroke-width:1px;stroke-linecap:butt;stroke-linejoin:miter;stroke-opacity:1;font-family:Bitstream Vera Sans">Iron</text>
    </g>
    <g>
      <text x="1480.00" y="686.00" style="font-size:18px;font-style:normal;font-weight:normal;text-align:center;text-anchor:middle;fill:#000000;fill-opacity:1;stroke:none;stroke-width:1px;stroke-linecap:butt;stroke-linejoin:miter;stroke-opacity:1;font-family:Bitstream Vera Sans">20</text>
    </g>
    <rect x="1271.00" y="831.00" width="18.00" height="18.00" stroke="#ce0000" stroke-width="1.4" fill="#ffffff"/>
    <rect x="1275.00" y="835.00" width="10.00" height="10.00" stroke="#ce0000" stroke-width="1.4" fill="#ce0000"/>
    <g>
      <text x="1280.00" y="863.50" style="font-size:14px;font-style:normal;font-weight:normal;text-align:center;text-anchor:middle;fill:#ce0000;fill-opacity:1;stroke:none;stroke-width:1px;stroke-linecap:butt;stroke-linejoin:miter;stroke-opacity:1;font-family:Bitstream Vera Sans">Red wins</text>
    </g>
    <path d="M 1181.37 747.58 L 1218.63 747.58 L 1200.00 778.63 L 1181.37 747.58" stroke="#000000" stroke-width="1.4" fill="#ffffff"/>
    <g>
      <text x="1224.00" y="768.00" style="font-size:27px;font-style:normal;font-weight:normal;text-align:center;text-anchor:middle;fill:#000000;fill-opacity:1;stroke:none;stroke-width:1px;stroke-linecap:butt;stroke-linejoin:miter;stroke-opacity:1;font-family:Bitstream Vera Sans">*</text>
    </g>
    <path d="M 1341.37 772.42 L 1378.63 772.42 L 1360.00 741.37 L 1341.37 772.42" stroke="#000000" stroke-width="1.4" fill="#ffffff"/>
    <g>
      <text x="1374.00" y="760.00" style="font-size:27px;font-style:normal;font-weight:normal;text-align:center;text-anchor:middle;fill:#000000;fill-opacity:1;stroke:none;stroke-width:1px;stroke-linecap:butt;stroke-linejoin:miter;stroke-opacity:1;font-family:Bitstream Vera Sans">*</text>
    </g>
    <path d="M 1182.77 487.59 L 1184.67 488.22 M 1191.31 490.44 L 1193.20 491.07 M 1199.84 493.28 L 1201.74 493.91 M 1208.38 496.13 L 1210.28 496.76 M 1216.92 498.97 L 1218.82 499.61 M 1225.46 501.82 L 1227.36 502.45 M 1234.00 504.67 L 1235.89 505.30 M 1242.54 507.51 L 1244.43 508.14 M 1251.07 510.36 L 1252.97 510.99 M 1259.61 513.20 L 1261.51 513.84 M 1268.15 516.05 L 1270.05 516.68 M 1276.69 518.90 L 1278.59 519.53 M 1280.00 520.00 M 1280.00 525.51 L 1280.00 527.51 M 1280.00 534.51 L 1280.00 536.51 M 1280.00 543.51 L 1280.00 545.51 M 1280.00 552.51 L 1280.00 554.51 M 1280.00 561.51 L 1280.00 563.51 M 1280.00 570.51 L 1280.00 572.51 M 1280.00 579.51 L 1280.00 581.51 M 1280.00 588.51 L 1280.00 590.51 M 1280.00 597.51 L 1280.00 599.51 M 1280.00 606.51 L 1280.00 608.51 M 1280.00 615.51 L 1280.00 617.51 M 1280.00 624.51 L 1280.00 626.51 M 1280.00 633.51 L 1280.00 635.51 M 1280.00 642.51 L 1280.00 644.51 M 1280.00 651.51 L 1280.00 653.51 M 1280.00 660.51 L 1280.00 661.00 M 1275.00 656.00 L 1280.00 661.00 L 1285.00 656.00" stroke="#0000ff" stroke-width="1.4" fill="none"/>
    <g>
      <text x="1241.37" y="501.08" style="font-size:14px;font-style:normal;font-weight:normal;text-align:center;text-anchor:middle;fill:#ffffff;fill-opacity:1;stroke:none;stroke-width:1px;stroke-linecap:butt;stroke-linejoin:miter;stroke-opacity:1;font-family:Bitstream Vera Sans">a</text>
    </g>
    <g>
      <text x="1241.37" y="501.08" style="font-size:14px;font-style:normal;font-weight:normal;text-align:center;text-anchor:middle;fill:#0000ff;fill-opacity:1;stroke:none;stroke-width:1px;stroke-linecap:butt;stroke-linejoin:miter;stroke-opacity:1;font-family:Bitstream Vera Sans">a</text>
    </g>
    <path d="M 1182.77 367.59 L 1184.67 368.22 M 1191.31 370.44 L 1193.20 371.07 M 1199.84 373.28 L 1201.74 373.91 M 1208.38 376.13 L 1210.28 376.76 M 1216.92 378.97 L 1218.82 379.61 M 1225.46 381.82 L 1227.36 382.45 M 1234.00 384.67 L 1235.89 385.30 M 1242.54 387.51 L 1244.43 388.14 M 1251.07 390.36 L 1252.97 390.99 M 1259.61 393.20 L 1261.51 393.84 M 1268.15 396.05 L 1270.05 396.68 M 1276.69 398.90 L 1278.59 399.53 M 1280.00 400.00 M 1280.00 405.51 L 1280.00 407.51 M 1280.00 414.51 L 1280.00 416.51 M 1280.00 423.51 L 1280.00 425.51 M 1280.00 432.51 L 1280.00 434.51 M 1280.00 441.51 L 1280.00 443.51 M 1280.00 450.51 L 1280.00 452.51 M 1280.00 459.51 L 1280.00 461.51 M 1280.00 468.51 L 1280.00 470.51 M 1280.00 477.51 L 1280.00 479.51 M 1280.00 486.51 L 1280.00 488.51 M 1280.00 495.51 L 1280.00 497.51 M 1280.00 504.51 L 1280.00 506.51 M 1280.00 513.51 L 1280.00 515.51 M 1280.00 522.51 L 1280.00 524.51 M 1280.00 531.51 L 1280.00 533.51 M 1280.00 540.51 L 1280.00 542.51 M 1280.00 549.51 L 1280.00 551.51 M 1280.00 558.51 L 1280.00 560.51 M 1280.00 567.51 L 1280.00 569.51 M 1280.00 576.51 L 1280.00 578.51 M 1280.00 585.51 L 1280.00 587.51 M 1280.00 594.51 L 1280.00 596.51 M 1280.00 603.51 L 1280.00 605.51 M 1280.00 612.51 L 1280.00 614.51 M 1280.00 621.51 L 1280.00 623.51 M 1280.00 630.51 L 1280.00 632.51 M 1280.00 639.51 L 1280.00 641.51 M 1280.00 648.51 L 1280.00 650.51 M 1280.00 657.51 L 1280.00 659.51 M 1280.00 661.00 M 1275.00 656.00 L 1280.00 661.00 L 1285.00 656.00" stroke="#0000ff" stroke-width="1.4" fill="none"/>
    <g>
      <text x="1241.10" y="380.99" style="font-size:14px;font-style:normal;font-weight:normal;text-align:center;text-anchor:middle;fill:#ffffff;fill-opacity:1;stroke:none;stroke-width:1px;stroke-linecap:butt;stroke-linejoin:miter;stroke-opacity:1;font-family:Bitstream Vera Sans">b</text>
    </g>
    <g>
      <text x="1241.10" y="380.99" style="font-size:14px;font-style:normal;font-weight:normal;text-align:center;text-anchor:middle;fill:#0000ff;fill-opacity:1;stroke:none;stroke-width:1px;stroke-linecap:butt;stroke-linejoin:miter;stroke-opacity:1;font-family:Bitstream Vera Sans">b</text>
    </g>
    <path d="M 1182.77 247.59 L 1184.67 248.22 M 1191.31 250.44 L 1193.20 251.07 M 1199.84 253.28 L 1201.74 253.91 M 1208.38 256.13 L 1210.28 256.76 M 1216.92 258.97 L 1218.82 259.61 M 1225.46 261.82 L 1227.36 262.45 M 1234.00 264.67 L 1235.89 265.30 M 1242.54 267.51 L 1244.43 268.14 M 1251.07 270.36 L 1252.97 270.99 M 1259.61 273.20 L 1261.51 273.84 M 1268.15 276.05 L 1270.05 276.68 M 1276.69 278.90 L 1278.59 279.53 M 1280.00 280.00 M 1280.00 285.51 L 1280.00 287.51 M 1280.00 294.51 L 1280.00 296.51 M 1280.00 303.51 L 1280.00 305.51 M 1280.00 312.51 L 1280.00 314.51 M 1280.00 321.51 L 1280.00 323.51 M 1280.00 330.51 L 1280.00 332.51 M 1280.00 339.51 L 1280.00 341.51 M 1280.00 348.51 L 1280.00 350.51 M 1280.00 357.51 L 1280.00 359.51 M 1280.00 366.51 L 1280.00 368.51 M 1280.00 375.51 L 1280.00 377.51 M 1280.00 384.51 L 1280.00 386.51 M 1280.00 393.51 L 1280.00 395.51 M 1280.00 402.51 L 1280.00 404.51 M 1280.00 411.51 L 1280.00 413.51 M 1280.00 420.51 L 1280.00 422.51 M 1280.00 429.51 L 1280.00 431.51 M 1280.00 438.51 L 1280.00 440.51 M 1280.00 447.51 L 1280.00 449.51 M 1280.00 456.51 L 1280.00 458.51 M 1280.00 465.51 L 1280.00 467.51 M 1280.00 474.51 L 1280.00 476.51 M 1280.00 483.51 L 1280.00 485.51 M 1280.00 492.51 L 1280.00 494.51 M 1280.00 501.51 L 1280.00 503.51 M 1280.00 510.51 L 1280.00 512.51 M 1280.00 519.51 L 1280.00 521.51 M 1280.00 528.51 L 1280.00 530.51 M 1280.00 537.51 L 1280.00 539.51 M 1280.00 546.51 L 1280.00 548.51 M 1280.00 555.51 L 1280.00 557.51 M 1280.00 564.51 L 1280.00 566.51 M 1280.00 573.51 L 1280.00 575.51 M 1280.00 582.51 L 1280.00 584.51 M 1280.00 591.51 L 1280.00 593.51 M 1280.00 600.51 L 1280.00 602.51 M 1280.00 609.51 L 1280.00 611.51 M 1280.00 618.51 L 1280.00 620.51 M 1280.00 627.51 L 1280.00 629.51 M 1280.00 636.51 L 1280.00 638.51 M 1280.00 645.51 L 1280.00 647.51 M 1280.00 654.51 L 1280.00 656.51 M 1280.00 661.00 M 1275.00 656.00 L 1280.00 661.00 L 1285.00 656.00" stroke="#0000ff" stroke-width="1.4" fill="none"/>
    <g>
      <text x="1240.97" y="260.95" style="font-size:14px;font-style:normal;font-weight:normal;text-align:center;text-anchor:middle;fill:#ffffff;fill-opacity:1;stroke:none;stroke-width:1px;stroke-linecap:butt;stroke-linejoin:miter;stroke-opacity:1;font-family:Bitstream Vera Sans">c</text>
    </g>
    <g>
      <text x="1240.97" y="260.95" style="font-size:14px;font-style:normal;font-weight:normal;text-align:center;text-anchor:middle;fill:#0000ff;fill-opacity:1;stroke:none;stroke-width:1px;stroke-linecap:butt;stroke-linejoin:miter;stroke-opacity:1;font-family:Bitstream Vera Sans">c</text>
    </g>
    <rect x="1265.60" y="665.60" width="28.80" height="28.80" stroke="#000000" stroke-width="1.4" fill="#000000"/>
    <g>
      <text x="1280.00" y="684.00" style="font-size:12px;font-style:normal;font-weight:normal;text-align:center;text-anchor:middle;fill:#ffffff;fill-opacity:1;stroke:none;stroke-width:1px;stroke-linecap:butt;stroke-linejoin:miter;stroke-opacity:1;font-family:Bitstream Vera Sans">x</text>
    </g>
    <g>
      <text x="1280.00" y="709.50" style="font-size:14px;font-style:normal;font-weight:normal;text-align:center;text-anchor:middle;fill:#000000;fill-opacity:1;stroke:none;stroke-width:1px;stroke-linecap:butt;stroke-linejoin:miter;stroke-opacity:1;font-family:Bitstream Vera Sans">a+b+c</text>
    </g>
    <path d="M 1182.06 489.45 L 1183.90 490.24 M 1190.33 493.00 L 1192.17 493.79 M 1198.60 496.54 L 1200.44 497.33 M 1206.88 500.09 L 1208.71 500.88 M 1215.15 503.64 L 1216.99 504.42 M 1223.42 507.18 L 1225.26 507.97 M 1231.69 510.73 L 1233.53 511.51 M 1239.97 514.27 L 1241.80 515.06 M 1248.24 517.82 L 1250.08 518.60 M 1256.51 521.36 L 1258.35 522.15 M 1264.78 524.91 L 1266.62 525.69 M 1273.05 528.45 L 1274.89 529.24 M 1281.33 532.00 L 1283.17 532.79 M 1289.60 535.54 L 1291.44 536.33 M 1297.87 539.09 L 1299.71 539.88 M 1306.14 542.63 L 1307.98 543.42 M 1314.42 546.18 L 1316.25 546.97 M 1322.69 549.72 L 1324.53 550.51 M 1330.96 553.27 L 1332.80 554.06 M 1339.23 556.81 L 1341.07 557.60 M 1347.51 560.36 L 1349.34 561.15 M 1355.78 563.90 L 1357.62 564.69 M 1364.05 567.45 L 1365.89 568.24 M 1372.32 571.00 L 1374.16 571.78 M 1380.59 574.54 L 1382.43 575.33 M 1388.87 578.09 L 1390.71 578.87 M 1397.14 581.63 L 1398.98 582.42 M 1405.41 585.18 L 1407.25 585.96 M 1413.68 588.72 L 1415.52 589.51 M 1421.96 592.27 L 1423.79 593.05 M 1430.23 595.81 L 1432.07 596.60 M 1438.50 599.36 L 1440.00 600.00 L 1440.00 600.37 M 1440.00 607.37 L 1440.00 609.37 M 1440.00 616.37 L 1440.00 618.37 M 1440.00 625.37 L 1440.00 627.37 M 1440.00 634.37 L 1440.01 636.37 M 1440.01 643.37 L 1440.01 645.37 M 1440.01 652.37 L 1440.01 654.37 M 1440.01 659.35 M 1435.01 654.35 L 1440.01 659.35 L 1445.01 654.35" stroke="#a9a9a9" stroke-width="1.4" fill="none"/>
    <g>
      <text x="1430.01" y="643.45" style="font-size:14px;font-style:normal;font-weight:normal;text-align:right;text-anchor:end;fill:#ffffff;fill-opacity:1;stroke:none;stroke-width:1px;stroke-linecap:butt;stroke-linejoin:miter;stroke-opacity:1;font-family:Bitstream Vera Sans">+1</text>
    </g>
    <g>
      <text x="1430.01" y="643.45" style="font-size:14px;font-style:normal;font-weight:normal;text-align:right;text-anchor:end;fill:#a9a9a9;fill-opacity:1;stroke:none;stroke-width:1px;stroke-linecap:butt;stroke-linejoin:miter;stroke-opacity:1;font-family:Bitstream Vera Sans">+1</text>
    </g>
    <path d="M 504.00 480.00 L 616.00 480.00 M 611.00 485.00 L 616.00 480.00 L 611.00 475.00" stroke="#ce0000" stroke-width="1.4" fill="none"/>
    <g>
      <text x="560.00" y="474.50" style="font-size:14px;font-style:normal;font-weight:normal;text-align:center;text-anchor:middle;fill:#ffffff;fill-opacity:1;stroke:none;stroke-width:1px;stroke-linecap:butt;stroke-linejoin:miter;stroke-opacity:1;font-family:Bitstream Vera Sans">0*25%</text>
    </g>
    <g>
      <text x="560.00" y="474.50" style="font-size:14px;font-style:normal;font-weight:normal;text-align:center;text-anchor:middle;fill:#ce0000;fill-opacity:1;stroke:none;stroke-width:1px;stroke-linecap:butt;stroke-linejoin:miter;stroke-opacity:1;font-family:Bitstream Vera Sans">0*25%</text>
    </g>
    <path d="M 504.00 360.00 L 616.00 360.00 M 611.00 365.00 L 616.00 360.00 L 611.00 355.00" stroke="#ce0000" stroke-width="1.4" fill="none"/>
    <g>
      <text x="560.00" y="354.50" style="font-size:14px;font-style:normal;font-weight:normal;text-align:center;text-anchor:middle;fill:#ffffff;fill-opacity:1;stroke:none;stroke-width:1px;stroke-linecap:butt;stroke-linejoin:miter;stroke-opacity:1;font-family:Bitstream Vera Sans">0*25%</text>
    </g>
    <g>
      <text x="560.00" y="354.50" style="font-size:14px;font-style:normal;font-weight:normal;text-align:center;text-anchor:middle;fill:#ce0000;fill-opacity:1;stroke:none;stroke-width:1px;stroke-linecap:butt;stroke-linejoin:miter;stroke-opacity:1;font-family:Bitstream Vera Sans">0*25%</text>
    </g>
    <path d="M 504.00 240.00 L 616.00 240.00 M 611.00 245.00 L 616.00 240.00 L 611.00 235.00" stroke="#ce0000" stroke-width="1.4" fill="none"/>
    <g>
      <text x="560.00" y="234.50" style="font-size:14px;font-style:normal;font-weight:normal;text-align:center;text-anchor:middle;fill:#ffffff;fill-opacity:1;stroke:none;stroke-width:1px;stroke-linecap:butt;stroke-linejoin:miter;stroke-opacity:1;font-family:Bitstream Vera Sans">0*25%</text>
    </g>
    <g>
      <text x="560.00" y="234.50" style="font-size:14px;font-style:normal;font-weight:normal;text-align:center;text-anchor:middle;fill:#ce0000;fill-opacity:1;stroke:none;stroke-width:1px;stroke-linecap:butt;stroke-linejoin:miter;stroke-opacity:1;font-family:Bitstream Vera Sans">0*25%</text>
    </g>
    <path d="M 621.37 227.58 L 658.63 227.58 L 640.00 258.63 L 621.37 227.58" stroke="#ce0000" stroke-width="1.4" fill="#ffffff"/>
    <g>
      <text x="664.00" y="248.00" style="font-size:27px;font-style:normal;font-weight:normal;text-align:center;text-anchor:middle;fill:#ce0000;fill-opacity:1;stroke:none;stroke-width:1px;stroke-linecap:butt;stroke-linejoin:miter;stroke-opacity:1;font-family:Bitstream Vera Sans">*</text>
    </g>
    <path d="M 621.37 347.58 L 658.63 347.58 L 640.00 378.63 L 621.37 347.58" stroke="#ce0000" stroke-width="1.4" fill="#ffffff"/>
    <g>
      <text x="664.00" y="368.00" style="font-size:27px;font-style:normal;font-weight:normal;text-align:center;text-anchor:middle;fill:#ce0000;fill-opacity:1;stroke:none;stroke-width:1px;stroke-linecap:butt;stroke-linejoin:miter;stroke-opacity:1;font-family:Bitstream Vera Sans">*</text>
    </g>
    <path d="M 621.37 467.58 L 658.63 467.58 L 640.00 498.63 L 621.37 467.58" stroke="#ce0000" stroke-width="1.4" fill="#ffffff"/>
    <g>
      <text x="664.00" y="488.00" style="font-size:27px;font-style:normal;font-weight:normal;text-align:center;text-anchor:middle;fill:#ce0000;fill-opacity:1;stroke:none;stroke-width:1px;stroke-linecap:butt;stroke-linejoin:miter;stroke-opacity:1;font-family:Bitstream Vera Sans">*</text>
    </g>
    <path d="M 981.37 347.58 L 1018.63 347.58 L 1000.00 378.63 L 981.37 347.58" stroke="#0000ff" stroke-width="1.4" fill="#ffffff"/>
    <g>
      <text x="1024.00" y="368.00" style="font-size:27px;font-style:normal;font-weight:normal;text-align:center;text-anchor:middle;fill:#0000ff;fill-opacity:1;stroke:none;stroke-width:1px;stroke-linecap:butt;stroke-linejoin:miter;stroke-opacity:1;font-family:Bitstream Vera Sans">*</text>
    </g>
    <path d="M 1140.80 374.40 L 1139.20 375.60 M 1133.60 379.80 L 1132.00 381.00 M 1126.40 385.20 L 1124.80 386.40 M 1119.20 390.60 L 1117.60 391.80 M 1112.00 396.00 L 1110.40 397.20 M 1104.80 401.40 L 1103.20 402.60 M 1097.60 406.80 L 1096.00 408.00 M 1090.40 412.20 L 1088.80 413.40 M 1083.20 417.60 L 1081.60 418.80 M 1076.00 423.00 L 1074.40 424.20 M 1068.80 428.40 L 1067.20 429.60 M 1061.60 433.80 L 1060.00 435.00 M 1054.40 439.20 L 1052.80 440.40 M 1047.20 444.60 L 1045.60 445.80 M 1040.00 450.00 L 1038.40 451.20 M 1032.80 455.40 L 1031.20 456.60 M 1025.60 460.80 L 1024.00 462.00 M 1019.20 465.60 M 1020.20 458.60 L 1019.20 465.60 L 1026.20 466.60" stroke="#000000" stroke-width="1.4" fill="none"/>
    <g>
      <text x="1074.00" y="416.50" style="font-size:14px;font-style:normal;font-weight:normal;text-align:right;text-anchor:end;fill:#ffffff;fill-opacity:1;stroke:none;stroke-width:1px;stroke-linecap:butt;stroke-linejoin:miter;stroke-opacity:1;font-family:Bitstream Vera Sans">==0</text>
    </g>
    <g>
      <text x="1074.00" y="416.50" style="font-size:14px;font-style:normal;font-weight:normal;text-align:right;text-anchor:end;fill:#000000;fill-opacity:1;stroke:none;stroke-width:1px;stroke-linecap:butt;stroke-linejoin:miter;stroke-opacity:1;font-family:Bitstream Vera Sans">==0</text>
    </g>
    <path d="M 1138.53 250.73 L 1136.74 251.63 M 1130.48 254.76 L 1128.70 255.65 M 1122.43 258.78 L 1120.65 259.68 M 1114.38 262.81 L 1112.60 263.70 M 1106.33 266.83 L 1104.55 267.73 M 1098.28 270.86 L 1096.50 271.75 M 1090.23 274.88 L 1088.45 275.78 M 1082.18 278.91 L 1080.40 279.80 M 1080.00 280.00 M 1073.47 280.54 L 1071.47 280.71 M 1064.50 281.29 L 1062.50 281.46 M 1055.53 282.04 L 1053.53 282.21 M 1046.56 282.79 L 1044.57 282.95 M 1037.59 283.53 L 1035.60 283.70 M 1028.62 284.28 L 1026.63 284.45 M 1019.65 285.03 L 1017.66 285.20 M 1010.68 285.78 L 1008.69 285.94 M 1001.71 286.52 L 999.72 286.69 M 992.75 287.27 L 990.75 287.44 M 983.78 288.02 L 981.78 288.18 M 974.81 288.77 L 972.81 288.93 M 965.84 289.51 L 963.85 289.68 M 956.87 290.26 L 954.88 290.43 M 947.90 291.01 L 945.91 291.17 M 938.93 291.76 L 936.94 291.92 M 929.96 292.50 L 927.97 292.67 M 920.99 293.25 L 919.00 293.42 M 912.02 294.00 L 910.03 294.16 M 903.06 294.75 L 901.06 294.91 M 894.09 295.49 L 892.09 295.66 M 885.12 296.24 L 883.13 296.41 M 876.15 296.99 L 874.16 297.15 M 867.18 297.73 L 865.19 297.90 M 858.21 298.48 L 856.22 298.65 M 849.24 299.23 L 847.25 299.40 M 840.27 299.98 L 838.28 300.14 M 831.30 300.72 L 829.31 300.89 M 822.34 301.47 L 820.34 301.64 M 813.37 302.22 L 811.37 302.39 M 804.40 302.97 L 802.40 303.13 M 795.43 303.71 L 793.44 303.88 M 786.46 304.46 L 784.47 304.63 M 777.49 305.21 L 775.50 305.38 M 768.52 305.96 L 766.53 306.12 M 759.55 306.70 L 757.56 306.87 M 750.58 307.45 L 748.59 307.62 M 741.62 308.20 L 739.62 308.36 M 732.65 308.95 L 730.65 309.11 M 723.68 309.69 L 721.68 309.86 M 714.71 310.44 L 712.72 310.61 M 705.74 311.19 L 703.75 311.35 M 696.77 311.94 L 694.78 312.10 M 687.80 312.68 L 685.81 312.85 M 678.83 313.43 L 676.84 313.60 M 669.86 314.18 L 667.87 314.34 M 660.90 314.93 L 658.90 315.09 M 651.93 315.67 L 649.93 315.84 M 642.96 316.42 L 640.96 316.59 M 633.99 317.17 L 632.00 317.33 M 625.02 317.92 L 623.03 318.08 M 616.05 318.66 L 614.06 318.83 M 607.08 319.41 L 605.09 319.58 M 600.00 320.00 M 599.51 321.83 L 599.00 323.76 M 597.19 330.53 L 596.68 332.46 M 594.87 339.22 L 594.36 341.15 M 592.56 347.92 L 592.04 349.85 M 590.24 356.61 L 589.72 358.55 M 587.92 365.31 L 587.40 367.24 M 585.60 374.01 L 585.08 375.94 M 583.28 382.70 L 582.76 384.63 M 580.96 391.40 L 580.45 393.33 M 578.64 400.09 L 578.13 402.03 M 576.32 408.79 L 575.81 410.72 M 574.00 417.49 L 573.49 419.42 M 571.68 426.18 L 571.17 428.12 M 569.37 434.88 L 568.85 436.81 M 567.05 443.58 L 566.53 445.51 M 564.73 452.27 L 564.21 454.20 M 562.84 459.35 M 559.30 453.23 L 562.84 459.35 L 568.96 455.81" stroke="#0000ff" stroke-width="1.4" fill="none"/>
    <g>
      <text x="556.74" y="447.91" style="font-size:14px;font-style:normal;font-weight:normal;text-align:right;text-anchor:end;fill:#ffffff;fill-opacity:1;stroke:none;stroke-width:1px;stroke-linecap:butt;stroke-linejoin:miter;stroke-opacity:1;font-family:Bitstream Vera Sans">+1m</text>
    </g>
    <g>
      <text x="556.74" y="447.91" style="font-size:14px;font-style:normal;font-weight:normal;text-align:right;text-anchor:end;fill:#0000ff;fill-opacity:1;stroke:none;stroke-width:1px;stroke-linecap:butt;stroke-linejoin:miter;stroke-opacity:1;font-family:Bitstream Vera Sans">+1m</text>
    </g>
    <path d="M 1138.53 250.73 L 1136.74 251.63 M 1130.48 254.76 L 1128.70 255.65 M 1122.43 258.78 L 1120.65 259.68 M 1114.38 262.81 L 1112.60 263.70 M 1106.33 266.83 L 1104.55 267.73 M 1098.28 270.86 L 1096.50 271.75 M 1090.23 274.88 L 1088.45 275.78 M 1082.18 278.91 L 1080.40 279.80 M 1080.00 280.00 M 1073.47 280.54 L 1071.47 280.71 M 1064.50 281.29 L 1062.50 281.46 M 1055.53 282.04 L 1053.53 282.21 M 1046.56 282.79 L 1044.57 282.95 M 1037.59 283.53 L 1035.60 283.70 M 1028.62 284.28 L 1026.63 284.45 M 1019.65 285.03 L 1017.66 285.20 M 1010.68 285.78 L 1008.69 285.94 M 1001.71 286.52 L 999.72 286.69 M 992.75 287.27 L 990.75 287.44 M 983.78 288.02 L 981.78 288.18 M 974.81 288.77 L 972.81 288.93 M 965.84 289.51 L 963.85 289.68 M 956.87 290.26 L 954.88 290.43 M 947.90 291.01 L 945.91 291.17 M 938.93 291.76 L 936.94 291.92 M 929.96 292.50 L 927.97 292.67 M 920.99 293.25 L 919.00 293.42 M 912.02 294.00 L 910.03 294.16 M 903.06 294.75 L 901.06 294.91 M 894.09 295.49 L 892.09 295.66 M 885.12 296.24 L 883.13 296.41 M 876.15 296.99 L 874.16 297.15 M 867.18 297.73 L 865.19 297.90 M 858.21 298.48 L 856.22 298.65 M 849.24 299.23 L 847.25 299.40 M 840.27 299.98 L 838.28 300.14 M 831.30 300.72 L 829.31 300.89 M 822.34 301.47 L 820.34 301.64 M 813.37 302.22 L 811.37 302.39 M 804.40 302.97 L 802.40 303.13 M 795.43 303.71 L 793.44 303.88 M 786.46 304.46 L 784.47 304.63 M 777.49 305.21 L 775.50 305.38 M 768.52 305.96 L 766.53 306.12 M 759.55 306.70 L 757.56 306.87 M 750.58 307.45 L 748.59 307.62 M 741.62 308.20 L 739.62 308.36 M 732.65 308.95 L 730.65 309.11 M 723.68 309.69 L 721.68 309.86 M 714.71 310.44 L 712.72 310.61 M 705.74 311.19 L 703.75 311.35 M 696.77 311.94 L 694.78 312.10 M 687.80 312.68 L 685.81 312.85 M 678.83 313.43 L 676.84 313.60 M 669.86 314.18 L 667.87 314.34 M 660.90 314.93 L 658.90 315.09 M 651.93 315.67 L 649.93 315.84 M 642.96 316.42 L 640.96 316.59 M 633.99 317.17 L 632.00 317.33 M 625.02 317.92 L 623.03 318.08 M 616.05 318.66 L 614.06 318.83 M 607.08 319.41 L 605.09 319.58 M 600.00 320.00 M 598.49 321.14 L 596.89 322.34 M 591.29 326.54 L 589.69 327.74 M 584.09 331.94 L 582.49 333.14 M 576.89 337.34 L 575.29 338.54 M 574.20 339.35 M 575.20 332.35 L 574.20 339.35 L 581.20 340.35" stroke="#0000ff" stroke-width="1.4" fill="none"/>
    <g>
      <text x="577.47" y="328.90" style="font-size:14px;font-style:normal;font-weight:normal;text-align:right;text-anchor:end;fill:#ffffff;fill-opacity:1;stroke:none;stroke-width:1px;stroke-linecap:butt;stroke-linejoin:miter;stroke-opacity:1;font-family:Bitstream Vera Sans">+1m</text>
    </g>
    <g>
      <text x="577.47" y="328.90" style="font-size:14px;font-style:normal;font-weight:normal;text-align:right;text-anchor:end;fill:#0000ff;fill-opacity:1;stroke:none;stroke-width:1px;stroke-linecap:butt;stroke-linejoin:miter;stroke-opacity:1;font-family:Bitstream Vera Sans">+1m</text>
    </g>
    <path d="M 501.47 250.73 L 503.26 251.63 M 509.52 254.76 L 511.30 255.65 M 517.57 258.78 L 519.35 259.68 M 525.62 262.81 L 527.40 263.70 M 533.67 266.83 L 535.45 267.73 M 541.72 270.86 L 543.50 271.75 M 549.77 274.88 L 551.55 275.78 M 557.82 278.91 L 559.60 279.80 M 560.00 280.00 M 566.53 280.54 L 568.53 280.71 M 575.50 281.29 L 577.50 281.46 M 584.47 282.04 L 586.47 282.21 M 593.44 282.79 L 595.43 282.95 M 602.41 283.53 L 604.40 283.70 M 611.38 284.28 L 613.37 284.45 M 620.35 285.03 L 622.34 285.20 M 629.32 285.78 L 631.31 285.94 M 638.29 286.52 L 640.28 286.69 M 647.25 287.27 L 649.25 287.44 M 656.22 288.02 L 658.22 288.18 M 665.19 288.77 L 667.19 288.93 M 674.16 289.51 L 676.15 289.68 M 683.13 290.26 L 685.12 290.43 M 692.10 291.01 L 694.09 291.17 M 701.07 291.76 L 703.06 291.92 M 710.04 292.50 L 712.03 292.67 M 719.01 293.25 L 721.00 293.42 M 727.98 294.00 L 729.97 294.16 M 736.94 294.75 L 738.94 294.91 M 745.91 295.49 L 747.91 295.66 M 754.88 296.24 L 756.87 296.41 M 763.85 296.99 L 765.84 297.15 M 772.82 297.73 L 774.81 297.90 M 781.79 298.48 L 783.78 298.65 M 790.76 299.23 L 792.75 299.40 M 799.73 299.98 L 801.72 300.14 M 808.70 300.72 L 810.69 300.89 M 817.66 301.47 L 819.66 301.64 M 826.63 302.22 L 828.63 302.39 M 835.60 302.97 L 837.60 303.13 M 844.57 303.71 L 846.56 303.88 M 853.54 304.46 L 855.53 304.63 M 862.51 305.21 L 864.50 305.38 M 871.48 305.96 L 873.47 306.12 M 880.45 306.70 L 882.44 306.87 M 889.42 307.45 L 891.41 307.62 M 898.38 308.20 L 900.38 308.36 M 907.35 308.95 L 909.35 309.11 M 916.32 309.69 L 918.32 309.86 M 925.29 310.44 L 927.28 310.61 M 934.26 311.19 L 936.25 311.35 M 943.23 311.94 L 945.22 312.10 M 952.20 312.68 L 954.19 312.85 M 961.17 313.43 L 963.16 313.60 M 970.14 314.18 L 972.13 314.34 M 979.10 314.93 L 981.10 315.09 M 988.07 315.67 L 990.07 315.84 M 997.04 316.42 L 999.04 316.59 M 1006.01 317.17 L 1008.00 317.33 M 1014.98 317.92 L 1016.97 318.08 M 1023.95 318.66 L 1025.94 318.83 M 1032.92 319.41 L 1034.91 319.58 M 1040.00 320.00 M 1041.51 321.14 L 1043.11 322.34 M 1048.71 326.54 L 1050.31 327.74 M 1055.91 331.94 L 1057.51 333.14 M 1063.11 337.34 L 1064.71 338.54 M 1065.80 339.35 M 1058.80 340.35 L 1065.80 339.35 L 1064.80 332.35" stroke="#ce0000" stroke-width="1.4" fill="none"/>
    <g>
      <text x="1062.53" y="328.90" style="font-size:14px;font-style:normal;font-weight:normal;text-align:left;text-anchor:start;fill:#ffffff;fill-opacity:1;stroke:none;stroke-width:1px;stroke-linecap:butt;stroke-linejoin:miter;stroke-opacity:1;font-family:Bitstream Vera Sans">+1m</text>
    </g>
    <g>
      <text x="1062.53" y="328.90" style="font-size:14px;font-style:normal;font-weight:normal;text-align:left;text-anchor:start;fill:#ce0000;fill-opacity:1;stroke:none;stroke-width:1px;stroke-linecap:butt;stroke-linejoin:miter;stroke-opacity:1;font-family:Bitstream Vera Sans">+1m</text>
    </g>
    <path d="M 488.91 337.72 L 489.66 335.86 M 492.26 329.36 L 493.00 327.50 M 495.60 321.00 L 496.34 319.15 M 498.94 312.65 L 499.68 310.79 M 502.28 304.29 L 503.03 302.43 M 505.63 295.94 L 506.37 294.08 M 508.97 287.58 L 509.71 285.72 M 512.31 279.22 L 513.05 277.37 M 515.65 270.87 L 516.40 269.01 M 519.00 262.51 L 519.74 260.65 M 522.34 254.15 L 523.08 252.30 M 525.68 245.80 L 526.42 243.94 M 529.02 237.44 L 529.77 235.58 M 532.37 229.08 L 533.11 227.23 M 535.71 220.73 L 536.45 218.87 M 539.05 212.37 L 539.79 210.52 M 542.39 204.02 L 543.14 202.16 M 545.74 195.66 L 546.48 193.80 M 549.08 187.30 L 549.82 185.45 M 552.42 178.95 L 553.16 177.09 M 555.76 170.59 L 556.51 168.73 M 559.11 162.23 L 559.85 160.38 M 560.00 160.00 M 566.57 160.55 L 568.56 160.71 M 575.54 161.29 L 577.53 161.46 M 584.51 162.04 L 586.50 162.21 M 593.48 162.79 L 595.47 162.96 M 602.45 163.54 L 604.44 163.70 M 611.42 164.28 L 613.41 164.45 M 620.38 165.03 L 622.38 165.20 M 629.35 165.78 L 631.35 165.95 M 638.32 166.53 L 640.32 166.69 M 647.29 167.27 L 649.28 167.44 M 656.26 168.02 L 658.25 168.19 M 665.23 168.77 L 667.22 168.94 M 674.20 169.52 L 676.19 169.68 M 683.17 170.26 L 685.16 170.43 M 692.14 171.01 L 694.13 171.18 M 701.10 171.76 L 703.10 171.92 M 710.07 172.51 L 712.07 172.67 M 719.04 173.25 L 721.04 173.42 M 728.01 174.00 L 730.00 174.17 M 736.98 174.75 L 738.97 174.91 M 745.95 175.50 L 747.94 175.66 M 754.92 176.24 L 756.91 176.41 M 763.89 176.99 L 765.88 177.16 M 772.86 177.74 L 774.85 177.90 M 781.82 178.49 L 783.82 178.65 M 790.79 179.23 L 792.79 179.40 M 799.76 179.98 L 801.76 180.15 M 808.73 180.73 L 810.72 180.89 M 817.70 181.48 L 819.69 181.64 M 826.67 182.22 L 828.66 182.39 M 835.64 182.97 L 837.63 183.14 M 844.61 183.72 L 846.60 183.88 M 853.58 184.46 L 855.57 184.63 M 862.54 185.21 L 864.54 185.38 M 871.51 185.96 L 873.51 186.13 M 880.48 186.71 L 882.48 186.87 M 889.45 187.45 L 891.44 187.62 M 898.42 188.20 L 900.41 188.37 M 907.39 188.95 L 909.38 189.12 M 916.36 189.70 L 918.35 189.86 M 925.33 190.44 L 927.32 190.61 M 934.30 191.19 L 936.29 191.36 M 943.26 191.94 L 945.26 192.10 M 952.23 192.69 L 954.23 192.85 M 961.20 193.43 L 963.20 193.60 M 970.17 194.18 L 972.16 194.35 M 979.14 194.93 L 981.13 195.09 M 988.11 195.68 L 990.10 195.84 M 997.08 196.42 L 999.07 196.59 M 1006.05 197.17 L 1008.04 197.34 M 1015.02 197.92 L 1017.01 198.08 M 1023.99 198.67 L 1025.98 198.83 M 1032.95 199.41 L 1034.95 199.58 M 1040.00 200.00 M 1041.54 201.16 L 1043.14 202.36 M 1048.74 206.56 L 1050.34 207.76 M 1055.94 211.96 L 1057.54 213.16 M 1063.14 217.36 L 1064.74 218.56 M 1065.80 219.35 M 1058.80 220.35 L 1065.80 219.35 L 1064.80 212.35" stroke="#ce0000" stroke-width="1.4" fill="none"/>
    <g>
      <text x="1060.51" y="207.39" style="font-size:14px;font-style:normal;font-weight:normal;text-align:left;text-anchor:start;fill:#ffffff;fill-opacity:1;stroke:none;stroke-width:1px;stroke-linecap:butt;stroke-linejoin:miter;stroke-opacity:1;font-family:Bitstream Vera Sans">+1m</text>
    </g>
    <g>
      <text x="1060.51" y="207.39" style="font-size:14px;font-style:normal;font-weight:normal;text-align:left;text-anchor:start;fill:#ce0000;fill-opacity:1;stroke:none;stroke-width:1px;stroke-linecap:butt;stroke-linejoin:miter;stroke-opacity:1;font-family:Bitstream Vera Sans">+1m</text>
    </g>
    <path d="M 1151.09 337.72 L 1150.34 335.86 M 1147.74 329.36 L 1147.00 327.50 M 1144.40 321.00 L 1143.66 319.15 M 1141.06 312.65 L 1140.32 310.79 M 1137.72 304.29 L 1136.97 302.43 M 1134.37 295.94 L 1133.63 294.08 M 1131.03 287.58 L 1130.29 285.72 M 1127.69 279.22 L 1126.95 277.37 M 1124.35 270.87 L 1123.60 269.01 M 1121.00 262.51 L 1120.26 260.65 M 1117.66 254.15 L 1116.92 252.30 M 1114.32 245.80 L 1113.58 243.94 M 1110.98 237.44 L 1110.23 235.58 M 1107.63 229.08 L 1106.89 227.23 M 1104.29 220.73 L 1103.55 218.87 M 1100.95 212.37 L 1100.21 210.52 M 1097.61 204.02 L 1096.86 202.16 M 1094.26 195.66 L 1093.52 193.80 M 1090.92 187.30 L 1090.18 185.45 M 1087.58 178.95 L 1086.84 177.09 M 1084.24 170.59 L 1083.49 168.73 M 1080.89 162.23 L 1080.15 160.38 M 1080.00 160.00 M 1073.43 160.55 L 1071.44 160.71 M 1064.46 161.29 L 1062.47 161.46 M 1055.49 162.04 L 1053.50 162.21 M 1046.52 162.79 L 1044.53 162.96 M 1037.55 163.54 L 1035.56 163.70 M 1028.58 164.28 L 1026.59 164.45 M 1019.62 165.03 L 1017.62 165.20 M 1010.65 165.78 L 1008.65 165.95 M 1001.68 166.53 L 999.68 166.69 M 992.71 167.27 L 990.72 167.44 M 983.74 168.02 L 981.75 168.19 M 974.77 168.77 L 972.78 168.94 M 965.80 169.52 L 963.81 169.68 M 956.83 170.26 L 954.84 170.43 M 947.86 171.01 L 945.87 171.18 M 938.90 171.76 L 936.90 171.92 M 929.93 172.51 L 927.93 172.67 M 920.96 173.25 L 918.96 173.42 M 911.99 174.00 L 910.00 174.17 M 903.02 174.75 L 901.03 174.91 M 894.05 175.50 L 892.06 175.66 M 885.08 176.24 L 883.09 176.41 M 876.11 176.99 L 874.12 177.16 M 867.14 177.74 L 865.15 177.90 M 858.18 178.49 L 856.18 178.65 M 849.21 179.23 L 847.21 179.40 M 840.24 179.98 L 838.24 180.15 M 831.27 180.73 L 829.28 180.89 M 822.30 181.48 L 820.31 181.64 M 813.33 182.22 L 811.34 182.39 M 804.36 182.97 L 802.37 183.14 M 795.39 183.72 L 793.40 183.88 M 786.42 184.46 L 784.43 184.63 M 777.46 185.21 L 775.46 185.38 M 768.49 185.96 L 766.49 186.13 M 759.52 186.71 L 757.52 186.87 M 750.55 187.45 L 748.56 187.62 M 741.58 188.20 L 739.59 188.37 M 732.61 188.95 L 730.62 189.12 M 723.64 189.70 L 721.65 189.86 M 714.67 190.44 L 712.68 190.61 M 705.70 191.19 L 703.71 191.36 M 696.74 191.94 L 694.74 192.10 M 687.77 192.69 L 685.77 192.85 M 678.80 193.43 L 676.80 193.60 M 669.83 194.18 L 667.84 194.35 M 660.86 194.93 L 658.87 195.09 M 651.89 195.68 L 649.90 195.84 M 642.92 196.42 L 640.93 196.59 M 633.95 197.17 L 631.96 197.34 M 624.98 197.92 L 622.99 198.08 M 616.01 198.67 L 614.02 198.83 M 607.05 199.41 L 605.05 199.58 M 600.00 200.00 M 598.46 201.16 L 596.86 202.36 M 591.26 206.56 L 589.66 207.76 M 584.06 211.96 L 582.46 213.16 M 576.86 217.36 L 575.26 218.56 M 574.20 219.35 M 575.20 212.35 L 574.20 219.35 L 581.20 220.35" stroke="#0000ff" stroke-width="1.4" fill="none"/>
    <g>
      <text x="579.49" y="207.39" style="font-size:14px;font-style:normal;font-weight:normal;text-align:right;text-anchor:end;fill:#ffffff;fill-opacity:1;stroke:none;stroke-width:1px;stroke-linecap:butt;stroke-linejoin:miter;stroke-opacity:1;font-family:Bitstream Vera Sans">+1m</text>
    </g>
    <g>
      <text x="579.49" y="207.39" style="font-size:14px;font-style:normal;font-weight:normal;text-align:right;text-anchor:end;fill:#0000ff;fill-opacity:1;stroke:none;stroke-width:1px;stroke-linecap:butt;stroke-linejoin:miter;stroke-opacity:1;font-family:Bitstream Vera Sans">+1m</text>
    </g>
    <path d="M 360.00 784.00 L 360.00 786.00 M 360.00 793.00 L 360.00 795.00 M 360.00 802.00 L 360.00 804.00 M 360.00 811.00 L 360.00 813.00 M 360.00 820.00 L 360.00 822.00 M 360.00 827.00 M 355.00 822.00 L 360.00 827.00 L 365.00 822.00" stroke="#000000" stroke-width="1.4" fill="none"/>
    <g>
      <text x="370.00" y="807.42" style="font-size:14px;font-style:normal;font-weight:normal;text-align:left;text-anchor:start;fill:#ffffff;fill-opacity:1;stroke:none;stroke-width:1px;stroke-linecap:butt;stroke-linejoin:miter;stroke-opacity:1;font-family:Bitstream Vera Sans">&gt;2</text>
    </g>
    <g>
      <text x="370.00" y="807.42" style="font-size:14px;font-style:normal;font-weight:normal;text-align:left;text-anchor:start;fill:#000000;fill-opacity:1;stroke:none;stroke-width:1px;stroke-linecap:butt;stroke-linejoin:miter;stroke-opacity:1;font-family:Bitstream Vera Sans">&gt;2</text>
    </g>
    <rect x="1551.00" y="151.00" width="18.00" height="18.00" stroke="#0000ff" stroke-width="1.4" fill="#ffffff"/>
    <g>
      <text x="1560.00" y="164.40" style="font-size:13px;font-style:normal;font-weight:normal;text-align:center;text-anchor:middle;fill:#0000ff;fill-opacity:1;stroke:none;stroke-width:1px;stroke-linecap:butt;stroke-linejoin:miter;stroke-opacity:1;font-family:Bitstream Vera Sans">AP</text>
    </g>
    <path d="M 216.00 680.00 L 184.00 680.00 M 189.00 675.00 L 184.00 680.00 L 189.00 685.00" stroke="#000000" stroke-width="1.4" fill="none"/>
    <g>
      <text x="200.00" y="674.50" style="font-size:14px;font-style:normal;font-weight:normal;text-align:center;text-anchor:middle;fill:#ffffff;fill-opacity:1;stroke:none;stroke-width:1px;stroke-linecap:butt;stroke-linejoin:miter;stroke-opacity:1;font-family:Bitstream Vera Sans">0</text>
    </g>
    <g>
      <text x="200.00" y="674.50" style="font-size:14px;font-style:normal;font-weight:normal;text-align:center;text-anchor:middle;fill:#000000;fill-opacity:1;stroke:none;stroke-width:1px;stroke-linecap:butt;stroke-linejoin:miter;stroke-opacity:1;font-family:Bitstream Vera Sans">0</text>
    </g>
    <circle cx="240.00" cy="680.00" r="20.00" stroke="#000000" stroke-width="1.4" fill="#ffffff"/>
    <g>
      <text x="262.00" y="678.00" style="font-size:27px;font-style:normal;font-weight:normal;text-align:center;text-anchor:middle;fill:#000000;fill-opacity:1;stroke:none;stroke-width:1px;stroke-linecap:butt;stroke-linejoin:miter;stroke-opacity:1;font-family:Bitstream Vera Sans">*</text>
    </g>
    <g>
      <text x="240.00" y="684.80" style="font-size:14px;font-style:normal;font-weight:normal;text-align:center;text-anchor:middle;fill:#000000;fill-opacity:1;stroke:none;stroke-width:1px;stroke-linecap:butt;stroke-linejoin:miter;stroke-opacity:1;font-family:Bitstream Vera Sans">1000</text>
    </g>
    <path d="M 1415.00 680.00 L 1456.00 680.00 M 1451.00 685.00 L 1456.00 680.00 L 1451.00 675.00" stroke="#000000" stroke-width="1.4" fill="none"/>
    <g>
      <text x="1440.01" y="674.50" style="font-size:14px;font-style:normal;font-weight:normal;text-align:center;text-anchor:middle;fill:#ffffff;fill-opacity:1;stroke:none;stroke-width:1px;stroke-linecap:butt;stroke-linejoin:miter;stroke-opacity:1;font-family:Bitstream Vera Sans">0</text>
    </g>
    <g>
      <text x="1440.01" y="674.50" style="font-size:14px;font-style:normal;font-weight:normal;text-align:center;text-anchor:middle;fill:#000000;fill-opacity:1;stroke:none;stroke-width:1px;stroke-linecap:butt;stroke-linejoin:miter;stroke-opacity:1;font-family:Bitstream Vera Sans">0</text>
    </g>
    <circle cx="1391.00" cy="680.00" r="20.00" stroke="#000000" stroke-width="1.4" fill="#ffffff"/>
    <g>
      <text x="1413.00" y="678.00" style="font-size:27px;font-style:normal;font-weight:normal;text-align:center;text-anchor:middle;fill:#000000;fill-opacity:1;stroke:none;stroke-width:1px;stroke-linecap:butt;stroke-linejoin:miter;stroke-opacity:1;font-family:Bitstream Vera Sans">*</text>
    </g>
    <g>
      <text x="1391.00" y="684.80" style="font-size:14px;font-style:normal;font-weight:normal;text-align:center;text-anchor:middle;fill:#000000;fill-opacity:1;stroke:none;stroke-width:1px;stroke-linecap:butt;stroke-linejoin:miter;stroke-opacity:1;font-family:Bitstream Vera Sans">1000</text>
    </g>
    <path d="M 66.10 360.00 L 81.00 374.90 L 95.90 360.00 L 81.00 345.10 L 66.10 360.00" stroke="#ce0000" stroke-width="1.4" fill="#ffffff"/>
    <path d="M 72.06 360.00 L 81.00 368.94 L 89.94 360.00 L 81.00 351.06 L 72.06 360.00" stroke="#ce0000" stroke-width="1.4" fill="#ffffff"/>
    <g>
      <text x="81.00" y="390.50" style="font-size:14px;font-style:normal;font-weight:normal;text-align:center;text-anchor:middle;fill:#ce0000;fill-opacity:1;stroke:none;stroke-width:1px;stroke-linecap:butt;stroke-linejoin:miter;stroke-opacity:1;font-family:Bitstream Vera Sans">end turn</text>
    </g>
    <rect x="1551.00" y="231.00" width="18.00" height="18.00" stroke="#0000ff" stroke-width="1.4" fill="#ffffff"/>
    <g>
      <text x="1576.00" y="234.00" style="font-size:18px;font-style:normal;font-weight:normal;text-align:center;text-anchor:middle;fill:#0000ff;fill-opacity:1;stroke:none;stroke-width:1px;stroke-linecap:butt;stroke-linejoin:miter;stroke-opacity:1;font-family:Bitstream Vera Sans">*</text>
    </g>
    <g>
      <text x="1560.00" y="244.40" style="font-size:13px;font-style:normal;font-weight:normal;text-align:center;text-anchor:middle;fill:#0000ff;fill-opacity:1;stroke:none;stroke-width:1px;stroke-linecap:butt;stroke-linejoin:miter;stroke-opacity:1;font-family:Bitstream Vera Sans">AP</text>
    </g>
    <g>
      <text x="1560.00" y="263.50" style="font-size:14px;font-style:normal;font-weight:normal;text-align:center;text-anchor:middle;fill:#0000ff;fill-opacity:1;stroke:none;stroke-width:1px;stroke-linecap:butt;stroke-linejoin:miter;stroke-opacity:1;font-family:Bitstream Vera Sans">Random</text>
    </g>
    <rect x="71.00" y="231.00" width="18.00" height="18.00" stroke="#ce0000" stroke-width="1.4" fill="#ffffff"/>
    <g>
      <text x="96.00" y="234.00" style="font-size:18px;font-style:normal;font-weight:normal;text-align:center;text-anchor:middle;fill:#ce0000;fill-opacity:1;stroke:none;stroke-width:1px;stroke-linecap:butt;stroke-linejoin:miter;stroke-opacity:1;font-family:Bitstream Vera Sans">*</text>
    </g>
    <g>
      <text x="80.00" y="244.40" style="font-size:13px;font-style:normal;font-weight:normal;text-align:center;text-anchor:middle;fill:#ce0000;fill-opacity:1;stroke:none;stroke-width:1px;stroke-linecap:butt;stroke-linejoin:miter;stroke-opacity:1;font-family:Bitstream Vera Sans">AP</text>
    </g>
    <g>
      <text x="80.00" y="263.50" style="font-size:14px;font-style:normal;font-weight:normal;text-align:center;text-anchor:middle;fill:#ce0000;fill-opacity:1;stroke:none;stroke-width:1px;stroke-linecap:butt;stroke-linejoin:miter;stroke-opacity:1;font-family:Bitstream Vera Sans">Random</text>
    </g>
    <path d="M 598.00 563.74 L 592.29 559.69 M 597.29 559.56 L 598.00 563.74 L 593.82 564.45 M 499.57 493.89 L 505.28 497.94 M 501.10 498.65 L 505.28 497.94 L 504.57 493.76" stroke="#ce0000" stroke-width="1.4" fill="none"/>
    <path d="M 1044.00 562.81 L 1049.70 558.74 M 1048.18 563.51 L 1044.00 562.81 L 1044.70 558.62 M 1140.47 493.94 L 1134.77 498.01 M 1135.47 493.83 L 1134.77 498.01 L 1138.95 498.71" stroke="#0000ff" stroke-width="1.4" fill="none"/>
    <circle cx="1160.00" cy="240.00" r="20.00" stroke="#0000ff" stroke-width="1.4" fill="#ffffff"/>
    <circle cx="1160.00" cy="240.00" r="15.00" stroke="#0000ff" stroke-width="1.4" fill="#ffffff"/>
    <g>
      <text x="1160.00" y="274.50" style="font-size:14px;font-style:normal;font-weight:normal;text-align:center;text-anchor:middle;fill:#0000ff;fill-opacity:1;stroke:none;stroke-width:1px;stroke-linecap:butt;stroke-linejoin:miter;stroke-opacity:1;font-family:Bitstream Vera Sans">Attack</text>
    </g>
    <path d="M 501.47 250.73 L 503.26 251.63 M 509.52 254.76 L 511.30 255.65 M 517.57 258.78 L 519.35 259.68 M 525.62 262.81 L 527.40 263.70 M 533.67 266.83 L 535.45 267.73 M 541.72 270.86 L 543.50 271.75 M 549.77 274.88 L 551.55 275.78 M 557.82 278.91 L 559.60 279.80 M 560.00 280.00 M 566.53 280.54 L 568.53 280.71 M 575.50 281.29 L 577.50 281.46 M 584.47 282.04 L 586.47 282.21 M 593.44 282.79 L 595.43 282.95 M 602.41 283.53 L 604.40 283.70 M 611.38 284.28 L 613.37 284.45 M 620.35 285.03 L 622.34 285.20 M 629.32 285.78 L 631.31 285.94 M 638.29 286.52 L 640.28 286.69 M 647.25 287.27 L 649.25 287.44 M 656.22 288.02 L 658.22 288.18 M 665.19 288.77 L 667.19 288.93 M 674.16 289.51 L 676.15 289.68 M 683.13 290.26 L 685.12 290.43 M 692.10 291.01 L 694.09 291.17 M 701.07 291.76 L 703.06 291.92 M 710.04 292.50 L 712.03 292.67 M 719.01 293.25 L 721.00 293.42 M 727.98 294.00 L 729.97 294.16 M 736.94 294.75 L 738.94 294.91 M 745.91 295.49 L 747.91 295.66 M 754.88 296.24 L 756.87 296.41 M 763.85 296.99 L 765.84 297.15 M 772.82 297.73 L 774.81 297.90 M 781.79 298.48 L 783.78 298.65 M 790.76 299.23 L 792.75 299.40 M 799.73 299.98 L 801.72 300.14 M 808.70 300.72 L 810.69 300.89 M 817.66 301.47 L 819.66 301.64 M 826.63 302.22 L 828.63 302.39 M 835.60 302.97 L 837.60 303.13 M 844.57 303.71 L 846.56 303.88 M 853.54 304.46 L 855.53 304.63 M 862.51 305.21 L 864.50 305.38 M 871.48 305.96 L 873.47 306.12 M 880.45 306.70 L 882.44 306.87 M 889.42 307.45 L 891.41 307.62 M 898.38 308.20 L 900.38 308.36 M 907.35 308.95 L 909.35 309.11 M 916.32 309.69 L 918.32 309.86 M 925.29 310.44 L 927.28 310.61 M 934.26 311.19 L 936.25 311.35 M 943.23 311.94 L 945.22 312.10 M 952.20 312.68 L 954.19 312.85 M 961.17 313.43 L 963.16 313.60 M 970.14 314.18 L 972.13 314.34 M 979.10 314.93 L 981.10 315.09 M 988.07 315.67 L 990.07 315.84 M 997.04 316.42 L 999.04 316.59 M 1006.01 317.17 L 1008.00 317.33 M 1014.98 317.92 L 1016.97 318.08 M 1023.95 318.66 L 1025.94 318.83 M 1032.92 319.41 L 1034.91 319.58 M 1040.00 320.00 M 1040.49 321.83 L 1041.00 323.76 M 1042.81 330.53 L 1043.32 332.46 M 1045.13 339.22 L 1045.64 341.15 M 1047.44 347.92 L 1047.96 349.85 M 1049.76 356.61 L 1050.28 358.55 M 1052.08 365.31 L 1052.60 367.24 M 1054.40 374.01 L 1054.92 375.94 M 1056.72 382.70 L 1057.24 384.63 M 1059.04 391.40 L 1059.55 393.33 M 1061.36 400.09 L 1061.87 402.03 M 1063.68 408.79 L 1064.19 410.72 M 1066.00 417.49 L 1066.51 419.42 M 1068.32 426.18 L 1068.83 428.12 M 1070.63 434.88 L 1071.15 436.81 M 1072.95 443.58 L 1073.47 445.51 M 1075.27 452.27 L 1075.79 454.20 M 1077.16 459.35 M 1071.04 455.81 L 1077.16 459.35 L 1080.70 453.23" stroke="#ce0000" stroke-width="1.4" fill="none"/>
    <g>
      <text x="1083.26" y="447.91" style="font-size:14px;font-style:normal;font-weight:normal;text-align:left;text-anchor:start;fill:#ffffff;fill-opacity:1;stroke:none;stroke-width:1px;stroke-linecap:butt;stroke-linejoin:miter;stroke-opacity:1;font-family:Bitstream Vera Sans">+1m</text>
    </g>
    <g>
      <text x="1083.26" y="447.91" style="font-size:14px;font-style:normal;font-weight:normal;text-align:left;text-anchor:start;fill:#ce0000;fill-opacity:1;stroke:none;stroke-width:1px;stroke-linecap:butt;stroke-linejoin:miter;stroke-opacity:1;font-family:Bitstream Vera Sans">+1m</text>
    </g>
    <rect x="601.00" y="562.00" width="440.00" height="320.00" stroke="#000000" stroke-width="0.7" fill="none"/>
    <path d="M 603.00 642.00 L 1038.00 642.00 M 603.00 722.00 L 1038.00 722.00 M 603.00 802.00 L 1038.00 802.00" stroke="#000000" stroke-width="0.7" fill="none" stroke-dasharray="1,2"/>
    <path d="M 601.00 852.91 L 645.00 852.91 L 689.00 852.91 L 733.00 852.91 L 777.00 852.91 L 821.00 852.91 L 865.00 852.91 L 909.00 852.91 L 953.00 852.91 L 997.00 852.91" stroke="#f0b3b3" stroke-width="1.4" fill="none"/>
    <path d="M 601.00 852.91 L 645.00 852.91 L 689.00 852.91 L 733.00 852.91 L 777.00 852.91 L 821.00 852.91 L 865.00 852.91 L 909.00 852.91 L 953.00 852.91 L 997.00 882.00" stroke="#b3b3ff" stroke-width="1.4" fill="none"/>
    <path d="M 601.00 852.91 L 645.00 852.91 L 689.00 852.91 L 733.00 823.82 L 777.00 794.73 L 821.00 794.73 L 865.00 794.73 L 909.00 794.73 L 953.00 794.73 L 997.00 794.73" stroke="#ce0000" stroke-width="1.4" fill="none"/>
    <path d="M 601.00 852.91 L 645.00 852.91 L 689.00 852.91 L 733.00 852.91 L 777.00 852.91 L 821.00 852.91 L 865.00 823.82 L 909.00 823.82 L 953.00 794.73 L 997.00 794.73" stroke="#0000ff" stroke-width="1.4" fill="none"/>
    <g>
      <text x="606.00" y="816.00" style="font-size:15px;font-style:normal;font-weight:normal;text-align:left;text-anchor:start;fill:#000000;fill-opacity:1;stroke:none;stroke-width:1px;stroke-linecap:butt;stroke-linejoin:miter;stroke-opacity:1;font-family:Bitstream Vera Sans">2.75</text>
    </g>
    <g>
      <text x="606.00" y="736.00" style="font-size:15px;font-style:normal;font-weight:normal;text-align:left;text-anchor:start;fill:#000000;fill-opacity:1;stroke:none;stroke-width:1px;stroke-linecap:butt;stroke-linejoin:miter;stroke-opacity:1;font-family:Bitstream Vera Sans">5.5</text>
    </g>
    <g>
      <text x="606.00" y="656.00" style="font-size:15px;font-style:normal;font-weight:normal;text-align:left;text-anchor:start;fill:#000000;fill-opacity:1;stroke:none;stroke-width:1px;stroke-linecap:butt;stroke-linejoin:miter;stroke-opacity:1;font-family:Bitstream Vera Sans">8.25</text>
    </g>
    <g>
      <text x="606.00" y="576.00" style="font-size:15px;font-style:normal;font-weight:normal;text-align:left;text-anchor:start;fill:#000000;fill-opacity:1;stroke:none;stroke-width:1px;stroke-linecap:butt;stroke-linejoin:miter;stroke-opacity:1;font-family:Bitstream Vera Sans">11</text>
    </g>
    <g>
      <text x="1037.00" y="878.00" style="font-size:15px;font-style:normal;font-weight:normal;text-align:right;text-anchor:end;fill:#000000;fill-opacity:1;stroke:none;stroke-width:1px;stroke-linecap:butt;stroke-linejoin:miter;stroke-opacity:1;font-family:Bitstream Vera Sans">10 s</text>
    </g>
    <rect x="71.00" y="151.00" width="18.00" height="18.00" stroke="#ce0000" stroke-width="1.4" fill="#ffffff"/>
    <g>
      <text x="80.00" y="164.40" style="font-size:13px;font-style:normal;font-weight:normal;text-align:center;text-anchor:middle;fill:#ce0000;fill-opacity:1;stroke:none;stroke-width:1px;stroke-linecap:butt;stroke-linejoin:miter;stroke-opacity:1;font-family:Bitstream Vera Sans">AP</text>
    </g>
    <path d="M 507.58 578.63 L 507.58 541.37 L 538.63 560.00 L 507.58 578.63 M 520.00 541.37 L 520.00 578.63" stroke="#ce0000" stroke-width="1.4" fill="#ffffff"/>
    <path d="M 512.55 571.18 L 512.55 548.82 L 531.18 560.00 L 512.55 571.18 M 520.00 548.82 L 520.00 571.18" stroke="#ce0000" stroke-width="1.4" fill="#ffffff"/>
    <g>
      <text x="520.00" y="594.50" style="font-size:14px;font-style:normal;font-weight:normal;text-align:center;text-anchor:middle;fill:#ce0000;fill-opacity:1;stroke:none;stroke-width:1px;stroke-linecap:butt;stroke-linejoin:miter;stroke-opacity:1;font-family:Bitstream Vera Sans">Unassign iron</text>
    </g>
    <path d="M 421.37 747.58 L 458.63 747.58 L 440.00 778.63 L 421.37 747.58" stroke="#000000" stroke-width="1.4" fill="#ffffff"/>
    <g>
      <text x="464.00" y="768.00" style="font-size:27px;font-style:normal;font-weight:normal;text-align:center;text-anchor:middle;fill:#000000;fill-opacity:1;stroke:none;stroke-width:1px;stroke-linecap:butt;stroke-linejoin:miter;stroke-opacity:1;font-family:Bitstream Vera Sans">*</text>
    </g>
    <path d="M 480.00 504.00 L 480.00 520.00 L 456.97 543.03 M 456.97 535.96 L 456.97 543.03 L 464.04 543.03" stroke="#008000" stroke-width="1.4" fill="none"/>
    <path d="M 480.00 504.00 L 480.00 520.00 L 503.03 543.03 M 495.96 543.03 L 503.03 543.03 L 503.03 535.96" stroke="#a9a9a9" stroke-width="1.4" fill="none"/>
    <path d="M 440.00 584.00 L 440.00 586.00 M 440.00 593.00 L 440.00 595.00 M 440.00 602.00 L 440.00 604.00 M 440.00 611.00 L 440.00 613.00 M 440.00 620.00 L 440.00 622.00 M 440.00 629.00 L 440.00 631.00 M 440.00 638.00 L 440.00 640.00 M 440.00 647.00 L 440.00 649.00 M 440.00 656.00 L 440.00 658.00 M 440.00 665.00 L 440.00 667.00 M 440.00 674.00 L 440.00 676.00 M 440.00 683.00 L 440.00 685.00 M 440.00 692.00 L 440.00 694.00 M 440.00 701.00 L 440.00 703.00 M 440.00 710.00 L 440.00 712.00 M 440.00 719.00 L 440.00 721.00 M 440.00 728.00 L 440.00 730.00 M 440.00 736.00 M 435.00 731.00 L 440.00 736.00 L 445.00 731.00" stroke="#ce0000" stroke-width="1.4" fill="none"/>
    <g>
      <text x="430.00" y="664.50" style="font-size:14px;font-style:normal;font-weight:normal;text-align:right;text-anchor:end;fill:#ffffff;fill-opacity:1;stroke:none;stroke-width:1px;stroke-linecap:butt;stroke-linejoin:miter;stroke-opacity:1;font-family:Bitstream Vera Sans">*</text>
    </g>
    <g>
      <text x="430.00" y="664.50" style="font-size:14px;font-style:normal;font-weight:normal;text-align:right;text-anchor:end;fill:#ce0000;fill-opacity:1;stroke:none;stroke-width:1px;stroke-linecap:butt;stroke-linejoin:miter;stroke-opacity:1;font-family:Bitstream Vera Sans">*</text>
    </g>
    <path d="M 427.58 578.63 L 427.58 541.37 L 458.63 560.00 L 427.58 578.63 M 440.00 541.37 L 440.00 578.63" stroke="#ce0000" stroke-width="1.4" fill="#ffffff"/>
    <path d="M 432.55 571.18 L 432.55 548.82 L 451.18 560.00 L 432.55 571.18 M 440.00 548.82 L 440.00 571.18" stroke="#ce0000" stroke-width="1.4" fill="#ffffff"/>
    <g>
      <text x="440.00" y="594.50" style="font-size:14px;font-style:normal;font-weight:normal;text-align:center;text-anchor:middle;fill:#ce0000;fill-opacity:1;stroke:none;stroke-width:1px;stroke-linecap:butt;stroke-linejoin:miter;stroke-opacity:1;font-family:Bitstream Vera Sans">Assign iron</text>
    </g>
    <circle cx="480.00" cy="480.00" r="20.00" stroke="#ce0000" stroke-width="1.4" fill="#ffffff"/>
    <g>
      <text x="480.00" y="454.50" style="font-size:14px;font-style:normal;font-weight:normal;text-align:center;text-anchor:middle;fill:#ce0000;fill-opacity:1;stroke:none;stroke-width:1px;stroke-linecap:butt;stroke-linejoin:miter;stroke-opacity:1;font-family:Bitstream Vera Sans">Workers</text>
    </g>
    <g>
      <circle cx="468.00" cy="478.00" r="6.00" stroke="none" stroke-width="0.0" fill="#004000"/>
      <circle cx="468.00" cy="478.00" r="4.00" stroke="none" stroke-width="0.0" fill="#008000"/>
    </g>
    <path d="M 440.00 536.00 L 440.00 520.00 L 463.03 496.97 M 463.03 504.04 L 463.03 496.97 L 455.96 496.97" stroke="#a9a9a9" stroke-width="1.4" fill="none"/>
  </g>
</svg>